<?xml version="1.0" encoding="UTF-8"?>
<svg xmlns="http://www.w3.org/2000/svg" viewBox="0 0 128 128" role="img" aria-labelledby="title desc">
  <title id="title">Glacial Pathfinder</title>
  <desc id="desc">Ranger with emerald cloak, crystalline bow, and quiver of frost-tipped arrows.</desc>
  <defs>
    <linearGradient id="archer-bg" x1="0" y1="0" x2="0" y2="1">
      <stop offset="0%" stop-color="#0b3324" />
      <stop offset="100%" stop-color="#0f2a22" />
    </linearGradient>
    <radialGradient id="archer-glow" cx="48%" cy="26%" r="62%">
      <stop offset="0%" stop-color="rgba(190, 242, 100, 0.78)" />
      <stop offset="100%" stop-color="rgba(4, 120, 87, 0)" />
    </radialGradient>
    <linearGradient id="archer-cloak" x1="0" y1="0" x2="0" y2="1">
      <stop offset="0%" stop-color="#16a34a" />
      <stop offset="100%" stop-color="#0d9488" />
    </linearGradient>
    <linearGradient id="archer-leather" x1="0" y1="0" x2="0" y2="1">
      <stop offset="0%" stop-color="#fde68a" />
      <stop offset="100%" stop-color="#b45309" />
    </linearGradient>
    <linearGradient id="archer-trim" x1="0" y1="0" x2="1" y2="1">
      <stop offset="0%" stop-color="#bbf7d0" />
      <stop offset="100%" stop-color="#6ee7b7" />
    </linearGradient>
    <linearGradient id="archer-bow" x1="0" y1="0" x2="0" y2="1">
      <stop offset="0%" stop-color="#fef3c7" />
      <stop offset="100%" stop-color="#fb923c" />
    </linearGradient>
  </defs>
  <rect width="128" height="128" rx="18" fill="url(#archer-bg)" />
  <circle cx="64" cy="44" r="46" fill="url(#archer-glow)" opacity="0.85" />
  <ellipse cx="64" cy="110" rx="36" ry="10" fill="#052e16" opacity="0.45" />
  <path d="M44 32c-14 12-20 32-16 54l18 10c0-20 8-36 18-44-6-8-14-14-20-20z" fill="url(#archer-cloak)" opacity="0.9" />
  <path d="M84 32c14 12 20 32 16 54l-18 10c0-20-8-36-18-44 6-8 14-14 20-20z" fill="url(#archer-cloak)" opacity="0.7" />
  <path d="M54 26l-10 14c-4 8-6 16-6 24l10 42h32l10-42c0-8-2-16-6-24L74 26H54z" fill="#f7fee7" stroke="#1f2937" stroke-width="2" stroke-linejoin="round" />
  <path d="M46 60h36l4 12c-10 10-18 14-22 14s-12-4-22-14l4-12z" fill="url(#archer-leather)" />
  <path d="M64 26c-6 0-12 4-16 10l6 10c6-8 20-8 26 0l6-10c-4-6-10-10-16-10z" fill="#e0f2f1" stroke="#99f6e4" stroke-width="1.5" />
  <path d="M58 20h12l4 6-10 8-10-8 4-6z" fill="#ccfbf1" stroke="#14b8a6" stroke-width="1.5" />
  <path d="M52 88l-6 32h36l-6-32H52z" fill="#172554" opacity="0.9" />
  <path d="M36 70l-10 6 18 34 10-6-18-34z" fill="#0f766e" stroke="#134e4a" stroke-width="2" />
  <path d="M92 70l10 6-18 34-10-6 18-34z" fill="#0f766e" stroke="#134e4a" stroke-width="2" />
  <path d="M88 36c10 18 22 28 22 44 4-12 0-26-6-38-6-10-10-12-16-6z" fill="#0f766e" opacity="0.6" />
  <path d="M40 36c-10 18-22 28-22 44-4-12 0-26 6-38 6-10 10-12 16-6z" fill="#0f766e" opacity="0.45" />
  <path d="M48 58l-6 12c10 12 18 16 22 16s12-4 22-16l-6-12H48z" fill="url(#archer-trim)" />
  <path d="M60 50h8l2 8-6 4-6-4 2-8z" fill="#1f2937" opacity="0.85" />
  <circle cx="64" cy="54" r="6" fill="#ecfeff" stroke="#99f6e4" stroke-width="1" />
  <path d="M58 38c-4 0-6 4-6 10 4-2 8-4 12-4s8 2 12 4c0-6-2-10-6-10H58z" fill="#0f172a" opacity="0.8" />
  <path d="M92 40c-16 18-24 44-24 64 6 0 10-2 14-6 6-10 14-20 24-28l-14-30z" fill="#c4f1f9" opacity="0.75" />
  <path d="M36 40c16 18 24 44 24 64-6 0-10-2-14-6-6-10-14-20-24-28l14-30z" fill="#bbf7d0" opacity="0.6" />
  <path d="M88 46c-2 0-4 0-6 2l-2 6c12 2 20 8 28 18 2-4 2-8 0-12-4-8-10-14-20-14z" fill="#dcfce7" opacity="0.8" />
  <path d="M40 46c2 0 4 0 6 2l2 6c-12 2-20 8-28 18-2-4-2-8 0-12 4-8 10-14 20-14z" fill="#d1fae5" opacity="0.75" />
  <path d="M102 42c-10 18-18 44-18 66 8-2 18-12 26-26 8-14 8-28-8-40z" fill="#052e16" opacity="0.55" />
  <path d="M26 42c10 18 18 44 18 66-8-2-18-12-26-26-8-14-8-28 8-40z" fill="#052e16" opacity="0.5" />
  <path d="M96 48c12-10 16-12 16-6s-2 10-6 16l-20 28-8-6 18-32z" fill="url(#archer-bow)" stroke="#92400e" stroke-width="2" stroke-linecap="round" stroke-linejoin="round" />
  <path d="M100 40c2-2 6-4 10-4v4c-6 4-12 12-18 22l-4-4 12-18z" fill="#fde68a" opacity="0.8" />
  <path d="M86 62l-8 14 4 6 8-14-4-6z" fill="#fef9c3" stroke="#f59e0b" stroke-width="1.2" />
  <path d="M74 58l-4 8c4 6 6 10 6 16 4-4 6-10 8-16l-10-8z" fill="#0f766e" opacity="0.9" />
  <path d="M52 90l12 8 12-8-12-40-12 40z" fill="#0f172a" opacity="0.8" />
  <path d="M60 104l4 10h-8l4-10z" fill="#0b1120" />
  <path d="M68 104l4 10h-8l4-10z" fill="#0b1120" />
</svg>
