<?xml version="1.0" encoding="UTF-8"?>
<svg xmlns="http://www.w3.org/2000/svg" viewBox="0 0 128 128" role="img" aria-labelledby="title desc">
  <title id="title">Frostguard Soldier</title>
  <desc id="desc">Armored nordic soldier with glacial blade, frosted shield, and aurora glow.</desc>
  <defs>
    <linearGradient id="soldier-bg" x1="0" y1="0" x2="0" y2="1">
      <stop offset="0%" stop-color="#0b2a44" />
      <stop offset="100%" stop-color="#10243b" />
    </linearGradient>
    <radialGradient id="soldier-glow" cx="50%" cy="28%" r="60%">
      <stop offset="0%" stop-color="rgba(191, 219, 254, 0.85)" />
      <stop offset="100%" stop-color="rgba(14, 116, 144, 0)" />
    </radialGradient>
    <linearGradient id="soldier-armor" x1="0" y1="0" x2="0" y2="1">
      <stop offset="0%" stop-color="#e2e8f0" />
      <stop offset="50%" stop-color="#cbd5f5" />
      <stop offset="100%" stop-color="#4b5563" />
    </linearGradient>
    <linearGradient id="soldier-trim" x1="0" y1="0" x2="1" y2="0">
      <stop offset="0%" stop-color="#fcd34d" />
      <stop offset="100%" stop-color="#f97316" />
    </linearGradient>
    <linearGradient id="soldier-cloak" x1="0" y1="0" x2="0" y2="1">
      <stop offset="0%" stop-color="#1e3a8a" />
      <stop offset="100%" stop-color="#1d4ed8" />
    </linearGradient>
    <linearGradient id="soldier-steel" x1="0" y1="0" x2="0" y2="1">
      <stop offset="0%" stop-color="#94a3b8" />
      <stop offset="100%" stop-color="#1f2937" />
    </linearGradient>
    <radialGradient id="soldier-shield" cx="38%" cy="38%" r="60%">
      <stop offset="0%" stop-color="#e0f2fe" />
      <stop offset="70%" stop-color="#60a5fa" />
      <stop offset="100%" stop-color="#1d4ed8" />
    </radialGradient>
  </defs>
  <rect width="128" height="128" rx="18" fill="url(#soldier-bg)" />
  <circle cx="64" cy="40" r="44" fill="url(#soldier-glow)" opacity="0.9" />
  <ellipse cx="64" cy="108" rx="36" ry="10" fill="#0f172a" opacity="0.4" />
  <path d="M38 38c-10 14-14 32-10 52l14 8c0-18 8-34 22-42-8-6-18-12-26-18z" fill="url(#soldier-cloak)" opacity="0.85" />
  <path d="M90 38c10 14 14 32 10 52l-14 8c0-18-8-34-22-42 8-6 18-12 26-18z" fill="url(#soldier-cloak)" opacity="0.65" />
  <path d="M58 22l-8 10c-4 6-6 14-6 22v20l12 38h16l12-38V54c0-8-2-16-6-22l-8-10h-12z" fill="url(#soldier-armor)" stroke="#1f2937" stroke-width="2" stroke-linejoin="round" />
  <path d="M50 54h28l4 12c-8 8-16 12-18 12s-10-4-18-12l4-12z" fill="#e0f2fe" opacity="0.85" />
  <path d="M64 22c-6 0-12 4-16 10l6 8c6-6 20-6 26 0l6-8c-4-6-10-10-16-10z" fill="#f8fafc" stroke="#cbd5f5" stroke-width="1.5" />
  <path d="M58 18h12l4 6-10 6-10-6 4-6z" fill="#e0f2fe" stroke="#94a3b8" stroke-width="1.5" />
  <rect x="46" y="68" width="12" height="26" rx="5" fill="#0ea5e9" opacity="0.8" />
  <rect x="70" y="68" width="12" height="26" rx="5" fill="#38bdf8" opacity="0.8" />
  <path d="M34 66l-10 6 12 28 12-6-14-28z" fill="url(#soldier-shield)" stroke="#1e3a8a" stroke-width="2" />
  <circle cx="36" cy="78" r="6" fill="rgba(226, 232, 240, 0.95)" />
  <path d="M94 64l-4-4-18 36 6 6 16-38z" fill="url(#soldier-steel)" stroke="#0f172a" stroke-width="2" stroke-linejoin="round" />
  <path d="M86 54l-16 34 10 4 14-32-8-6z" fill="#f8fafc" opacity="0.75" />
  <path d="M64 90c-8 0-14 6-18 14 8 4 12 6 18 6s10-2 18-6c-4-8-10-14-18-14z" fill="#dbeafe" stroke="#93c5fd" stroke-width="1.5" stroke-linejoin="round" />
  <path d="M54 58l-6 12c8 10 16 14 16 14s8-4 16-14l-6-12H54z" fill="url(#soldier-trim)" opacity="0.85" />
  <path d="M60 48h8l2 8-6 4-6-4 2-8z" fill="#334155" />
  <circle cx="64" cy="52" r="6" fill="#f1f5f9" stroke="#cbd5f5" stroke-width="1" />
  <path d="M58 38c-4 0-6 4-6 10 4-2 8-4 12-4s8 2 12 4c0-6-2-10-6-10H58z" fill="#1f2937" opacity="0.85" />
</svg>
