<svg width="256" height="256" viewBox="0 0 256 256" fill="none" xmlns="http://www.w3.org/2000/svg">
  <defs>
    <radialGradient id="coin-glow" cx="50%" cy="45%" r="65%">
      <stop offset="0%" stop-color="#FFF3C6" stop-opacity="0.92" />
      <stop offset="45%" stop-color="#FFD06A" stop-opacity="0.95" />
      <stop offset="100%" stop-color="#B86B0C" stop-opacity="0.9" />
    </radialGradient>
    <linearGradient id="coin-rim" x1="32" y1="32" x2="224" y2="224" gradientUnits="userSpaceOnUse">
      <stop offset="0%" stop-color="#FBE9A2" />
      <stop offset="45%" stop-color="#F2B640" />
      <stop offset="100%" stop-color="#B46B09" />
    </linearGradient>
    <linearGradient id="shield-fill" x1="128" y1="60" x2="128" y2="200" gradientUnits="userSpaceOnUse">
      <stop offset="0%" stop-color="#F8F0FF" stop-opacity="0.88" />
      <stop offset="45%" stop-color="#EBD1FF" stop-opacity="0.95" />
      <stop offset="100%" stop-color="#AB64FF" stop-opacity="0.92" />
    </linearGradient>
    <linearGradient id="shield-stroke" x1="104" y1="68" x2="156" y2="188" gradientUnits="userSpaceOnUse">
      <stop offset="0%" stop-color="#FFF9E6" />
      <stop offset="100%" stop-color="#FFC66B" />
    </linearGradient>
    <linearGradient id="crest-rays" x1="128" y1="84" x2="128" y2="188" gradientUnits="userSpaceOnUse">
      <stop offset="0%" stop-color="#FFEAB4" />
      <stop offset="100%" stop-color="#FFBB3B" stop-opacity="0" />
    </linearGradient>
    <filter id="inner-shadow" x="46" y="46" width="164" height="164" filterUnits="userSpaceOnUse" color-interpolation-filters="sRGB">
      <feOffset dx="0" dy="4" />
      <feGaussianBlur stdDeviation="10" result="blur" />
      <feComposite in="blur" in2="SourceAlpha" operator="out" />
      <feColorMatrix type="matrix" values="0 0 0 0 0.54  0 0 0 0 0.34  0 0 0 0 0.08  0 0 0 0.35 0" />
    </filter>
    <filter id="glow" x="-40" y="-40" width="336" height="336" filterUnits="userSpaceOnUse">
      <feGaussianBlur stdDeviation="26" result="blur" />
      <feBlend in="blur" in2="SourceGraphic" mode="screen" />
    </filter>
  </defs>
  <g filter="url(#glow)">
    <circle cx="128" cy="128" r="108" fill="url(#coin-glow)" />
    <circle cx="128" cy="128" r="120" stroke="url(#coin-rim)" stroke-width="12" fill="none" />
  </g>
  <g filter="url(#inner-shadow)">
    <circle cx="128" cy="128" r="86" fill="#361A02" fill-opacity="0.22" />
  </g>
  <g opacity="0.8">
    <path d="M128 60L156 72L188 88L180 132C176 160 158 186 128 202C98 186 80 160 76 132L68 88L100 72L128 60Z" fill="url(#shield-fill)" />
    <path d="M128 66L104.8 76.8L78.6 90.2L86.8 132.4C90.4 158 105.6 182 128 194C150.4 182 165.6 158 169.2 132.4L177.4 90.2L151.2 76.8L128 66Z" stroke="url(#shield-stroke)" stroke-width="5" fill="none" />
  </g>
  <g opacity="0.85">
    <path d="M128 94C114 94 102 102 102 116C102 132 116 141 128 141C140 141 154 132 154 116C154 102 142 94 128 94Z" fill="#4C2A84" fill-opacity="0.72" />
    <path d="M116 176L128 150L140 176C150 176 162 172 170 164C161 200 139 214 128 214C117 214 95 200 86 164C94 172 106 176 116 176Z" fill="#482872" fill-opacity="0.65" />
    <path d="M128 104C119 104 112 110 112 119C112 126 118 132 128 132C138 132 144 126 144 119C144 110 137 104 128 104Z" fill="#F9E7FF" />
  </g>
  <g opacity="0.38">
    <path d="M128 72L138 80L128 84L118 80L128 72Z" fill="#FFF8E5" />
    <path d="M96 92L110 96L106 108L94 104L96 92Z" fill="#FFF0D0" />
    <path d="M160 92L162 104L150 108L146 96L160 92Z" fill="#FFF0D0" />
    <path d="M88 132L100 136L96 152L84 146L88 132Z" fill="#FFE6B3" />
    <path d="M168 132L172 146L160 152L156 136L168 132Z" fill="#FFE6B3" />
  </g>
  <g opacity="0.55">
    <path d="M128 78C148 78 166 90 173 108" stroke="url(#crest-rays)" stroke-width="6" stroke-linecap="round" />
    <path d="M128 78C108 78 90 90 83 108" stroke="url(#crest-rays)" stroke-width="6" stroke-linecap="round" />
    <path d="M128 84C142 84 154 94 158 108" stroke="url(#crest-rays)" stroke-width="4" stroke-linecap="round" />
    <path d="M128 84C114 84 102 94 98 108" stroke="url(#crest-rays)" stroke-width="4" stroke-linecap="round" />
  </g>
</svg>
