<svg width="64" height="64" viewBox="0 0 64 64" xmlns="http://www.w3.org/2000/svg" role="img" aria-labelledby="title" focusable="false">
  <title>Artocoin emblem</title>
  <defs>
    <radialGradient id="artocoinGlow" cx="50%" cy="35%" r="70%">
      <stop offset="0%" stop-color="#fff4d6" stop-opacity="0.95" />
      <stop offset="55%" stop-color="#f9d27a" stop-opacity="0.85" />
      <stop offset="100%" stop-color="#d17b22" stop-opacity="0.9" />
    </radialGradient>
    <linearGradient id="artocoinRim" x1="0%" y1="0%" x2="100%" y2="100%">
      <stop offset="0%" stop-color="#f9f3e3" />
      <stop offset="45%" stop-color="#f2c45e" />
      <stop offset="100%" stop-color="#a85c19" />
    </linearGradient>
    <linearGradient id="artocoinHighlight" x1="25%" y1="15%" x2="85%" y2="85%">
      <stop offset="0%" stop-color="#fffaf0" stop-opacity="0.9" />
      <stop offset="40%" stop-color="#ffe9b8" stop-opacity="0.75" />
      <stop offset="100%" stop-color="#f9c55a" stop-opacity="0.6" />
    </linearGradient>
  </defs>
  <g fill="none">
    <circle cx="32" cy="32" r="30" fill="url(#artocoinRim)" stroke="#fff3d1" stroke-width="1.4" />
    <circle cx="32" cy="32" r="23" fill="url(#artocoinGlow)" stroke="#ffe4a8" stroke-width="1.2" />
    <path d="M32 16c7.732 0 14 6.268 14 14s-6.268 14-14 14-14-6.268-14-14 6.268-14 14-14Z" fill="url(#artocoinHighlight)" opacity="0.88" />
    <path d="M32 20c5.523 0 10 4.477 10 10s-4.477 10-10 10-10-4.477-10-10 4.477-10 10-10Z" stroke="#8d4f12" stroke-width="1.6" stroke-linejoin="round" />
    <path d="m32 24.5 2.85 5.78 6.38.93-4.61 4.49 1.09 6.35L32 38.6l-5.71 3.45 1.09-6.35-4.61-4.49 6.38-.93L32 24.5Z" fill="#9f5e16" />
    <path d="m32 26.8 2.11 4.3 4.75.69-3.43 3.34.81 4.71L32 36.95l-4.24 2.49.81-4.71-3.43-3.34 4.75-.69L32 26.8Z" fill="#fff6dc" />
    <path d="M20.2 18.8c3.16-3.4 7.59-5.44 12.28-5.44" stroke="#fff4d8" stroke-width="2" stroke-linecap="round" opacity="0.75" />
    <path d="M17 32c0-3.46.96-6.69 2.64-9.46" stroke="#fff1cc" stroke-width="1.6" stroke-linecap="round" opacity="0.5" />
    <path d="M32 49.5c-7.5 0-14.02-4.7-16.64-11.47" stroke="#b46b1d" stroke-width="1.4" stroke-linecap="round" opacity="0.55" />
  </g>
</svg>
