<?xml version="1.0" encoding="UTF-8"?>
<svg xmlns="http://www.w3.org/2000/svg" width="72" height="72" viewBox="0 0 72 72" role="img" aria-labelledby="title desc">
  <title id="title">Roster crest toggle</title>
  <desc id="desc">A polished midnight crest with three stylised attendants framed by radiant trim.</desc>
  <defs>
    <radialGradient id="toggle-glow" cx="50%" cy="38%" r="72%">
      <stop offset="0%" stop-color="rgba(148, 197, 255, 0.9)" />
      <stop offset="48%" stop-color="rgba(56, 120, 220, 0.35)" />
      <stop offset="100%" stop-color="rgba(12, 24, 48, 0.05)" />
    </radialGradient>
    <linearGradient id="toggle-frame" x1="0" y1="0" x2="0" y2="1">
      <stop offset="0%" stop-color="#f8fafc" />
      <stop offset="40%" stop-color="#cbd5f5" />
      <stop offset="100%" stop-color="#4f6fa6" />
    </linearGradient>
    <linearGradient id="toggle-shield" x1="0" y1="0" x2="1" y2="1">
      <stop offset="0%" stop-color="#0b172b" />
      <stop offset="55%" stop-color="#0f1f3b" />
      <stop offset="100%" stop-color="#163256" />
    </linearGradient>
    <linearGradient id="toggle-trim" x1="0" y1="0" x2="0" y2="1">
      <stop offset="0%" stop-color="#70d1ff" />
      <stop offset="100%" stop-color="#3abff8" />
    </linearGradient>
  </defs>
  <g fill="none" stroke-linecap="round" stroke-linejoin="round">
    <path
      d="M36 5.5c12.4 0 22.5 9.4 22.5 21v11.8c0 13.8-8.1 22-22.5 28.4-14.4-6.4-22.5-14.6-22.5-28.4V26.5c0-11.6 10.1-21 22.5-21z"
      fill="url(#toggle-frame)"
      stroke="rgba(12, 24, 48, 0.45)"
      stroke-width="1.4"
    />
    <path
      d="M36 10.2c-9.7 0-17.7 7.3-17.7 16.3v10.3c0 11.5 6.9 18 17.7 23 10.8-5 17.7-11.5 17.7-23V26.5c0-9-8-16.3-17.7-16.3z"
      fill="url(#toggle-shield)"
      stroke="rgba(11, 22, 41, 0.8)"
      stroke-width="1.2"
    />
    <path
      d="M36 12.8c-7.8 0-14.4 5.8-14.4 13v8.2c0 9.1 5.5 14.5 14.4 18.5 8.9-4 14.4-9.4 14.4-18.5v-8.2c0-7.2-6.6-13-14.4-13z"
      fill="url(#toggle-glow)"
      opacity="0.6"
    />
    <path
      d="M36 17.5c-5.8 0-10.5 4.4-10.5 9.8v5c0 5.5 4.7 9.8 10.5 9.8s10.5-4.4 10.5-9.8v-5c0-5.5-4.7-9.8-10.5-9.8z"
      fill="#142544"
      stroke="rgba(132, 176, 236, 0.35)"
      stroke-width="1.1"
    />
    <path
      d="M36 22.7c-3.6 0-6.5 2.7-6.5 6v2.7c0 3.4 2.9 6 6.5 6s6.5-2.7 6.5-6v-2.7c0-3.3-2.9-6-6.5-6z"
      fill="#1d355f"
      stroke="rgba(92, 143, 220, 0.55)"
      stroke-width="0.9"
    />
    <path
      d="M23.4 38.8c4.5 2.3 8 4.2 12.6 4.2s8.1-1.9 12.6-4.2"
      stroke="url(#toggle-trim)"
      stroke-width="2.6"
    />
    <path
      d="M22 34.4c1.4-2.9 4.5-4.9 8.1-4.9 2.4 0 4.6 0.9 6.1 2.4-1.6 2.1-2.4 4.5-2.4 7.1v3.1c-4 0-7.6-1.9-11.8-4.3z"
      fill="rgba(112, 176, 248, 0.65)"
      stroke="rgba(37, 81, 143, 0.55)"
      stroke-width="0.8"
    />
    <path
      d="M50 34.4c-1.4-2.9-4.5-4.9-8.1-4.9-2.4 0-4.6 0.9-6.1 2.4 1.6 2.1 2.4 4.5 2.4 7.1v3.1c4 0 7.6-1.9 11.8-4.3z"
      fill="rgba(112, 176, 248, 0.65)"
      stroke="rgba(37, 81, 143, 0.55)"
      stroke-width="0.8"
    />
    <path
      d="M36 42.6c-5 0-7.5 2.8-9.3 8.7 2.7 1.1 5.9 1.9 9.3 1.9s6.6-0.8 9.3-1.9c-1.8-5.9-4.3-8.7-9.3-8.7z"
      fill="#0f1f37"
      stroke="rgba(82, 124, 196, 0.45)"
      stroke-width="0.9"
    />
    <path
      d="M32.1 21.1l1.9-5.7M39.9 21.1l-1.9-5.7"
      stroke="rgba(196, 212, 255, 0.65)"
      stroke-width="1.3"
    />
  </g>
</svg>
