<svg xmlns="http://www.w3.org/2000/svg" viewBox="0 0 64 64" role="img" aria-hidden="true">
  <defs>
    <linearGradient id="scalingGradient" x1="8" y1="56" x2="56" y2="8" gradientUnits="userSpaceOnUse">
      <stop offset="0" stop-color="#0f172a" />
      <stop offset="0.45" stop-color="#1e3a8a" />
      <stop offset="1" stop-color="#38bdf8" />
    </linearGradient>
    <linearGradient id="pulseGradient" x1="18" y1="50" x2="46" y2="16" gradientUnits="userSpaceOnUse">
      <stop offset="0" stop-color="#14b8a6" stop-opacity="0.85" />
      <stop offset="1" stop-color="#a855f7" stop-opacity="0.9" />
    </linearGradient>
    <clipPath id="badgeClip">
      <rect x="6" y="6" width="52" height="52" rx="14" ry="14" />
    </clipPath>
  </defs>
  <g clip-path="url(#badgeClip)">
    <rect x="6" y="6" width="52" height="52" rx="14" ry="14" fill="url(#scalingGradient)" />
    <path
      fill="url(#pulseGradient)"
      d="M16 44c5-5.2 7.8-7.4 11.4-12.2 1.5-2 3-4.6 4.8-7 1.4-2 2.8-4 4.3-5.4 1.6-1.6 3.1-2.4 4.7-2.4 2.6 0 4.6 1.9 5.6 5.5l1.7 5.9 3.5-3.2c1.2-1.1 2.6-1.6 3.9-1.6 1.9 0 3.6 1 5.1 3l-0.2 18.6c-5.2 4.8-12.6 8.1-20.8 8.1-7.2 0-13.9-2.7-19-7.3-2.1-1.8-3.7-3.5-4.8-5.1Z"
      opacity="0.8"
    />
    <path
      fill="none"
      stroke="#f8fafc"
      stroke-width="3"
      stroke-linecap="round"
      stroke-linejoin="round"
      d="M14 42c6.4-6.2 9.8-9.1 13.4-13.8 2-2.6 3.7-5.4 5.3-7.8 1.5-2.4 2.7-4.1 4.1-5.2 1.4-1.1 2.6-1.6 3.6-1.6 2.2 0 3.7 1.7 4.5 4.9l2.4 8.7 5.8-5.3c0.9-0.8 1.9-1.1 2.8-1.1 1.4 0 2.6 0.8 3.8 2.4"
    />
    <circle cx="22.5" cy="22" r="4" fill="#38bdf8" opacity="0.85" />
    <circle cx="43" cy="16" r="3.5" fill="#a855f7" opacity="0.9" />
    <circle cx="49" cy="26" r="3" fill="#f97316" opacity="0.9" />
    <path
      fill="rgba(248, 250, 252, 0.16)"
      d="M6 30c8-4 18.6-6.1 30-6.1S58 26 64 30v10c-6.5 4.6-13.7 8-22 8s-16.2-3.2-24-8z"
    />
  </g>
  <rect x="6" y="6" width="52" height="52" rx="14" ry="14" fill="none" stroke="rgba(148, 163, 184, 0.45)" stroke-width="1.2" />
</svg>
