<?xml version="1.0" encoding="UTF-8"?>
<svg xmlns="http://www.w3.org/2000/svg" width="120" height="120" viewBox="0 0 120 120" role="img" aria-labelledby="title desc">
  <title id="title">Event dispatch badge</title>
  <desc id="desc">A twilight dispatch emblem with a crystal envelope and radiant signal burst for event updates.</desc>
  <defs>
    <radialGradient id="twilightHalo" cx="52%" cy="44%" r="58%">
      <stop offset="0%" stop-color="#f0abfc" stop-opacity="0.92" />
      <stop offset="55%" stop-color="#c084fc" stop-opacity="0.68" />
      <stop offset="100%" stop-color="#312e81" stop-opacity="0.9" />
    </radialGradient>
    <linearGradient id="envelopeFront" x1="0" y1="0" x2="0" y2="1">
      <stop offset="0%" stop-color="#ede9fe" />
      <stop offset="60%" stop-color="#c4b5fd" />
      <stop offset="100%" stop-color="#a78bfa" />
    </linearGradient>
    <linearGradient id="envelopeEdge" x1="0" y1="0" x2="1" y2="1">
      <stop offset="0%" stop-color="#a855f7" />
      <stop offset="100%" stop-color="#6b21a8" />
    </linearGradient>
    <linearGradient id="signalBurst" x1="0" y1="0" x2="0" y2="1">
      <stop offset="0%" stop-color="#fef3c7" />
      <stop offset="45%" stop-color="#fbbf24" />
      <stop offset="100%" stop-color="#f97316" />
    </linearGradient>
  </defs>
  <g fill="none" stroke-linecap="round" stroke-linejoin="round">
    <circle cx="60" cy="60" r="52" fill="url(#twilightHalo)" stroke="rgba(192, 132, 252, 0.55)" stroke-width="2.4" />
    <path d="M32 44h56c6.6 0 12 5.4 12 12v24c0 6.6-5.4 12-12 12H32c-6.6 0-12-5.4-12-12V56c0-6.6 5.4-12 12-12z" fill="url(#envelopeFront)" stroke="rgba(109, 40, 217, 0.45)" stroke-width="2.2" />
    <path d="M28 48l32 28 32-28" stroke="url(#envelopeEdge)" stroke-width="3.4" />
    <path d="M32 92 54 70" stroke="rgba(59, 7, 100, 0.45)" stroke-width="2.6" />
    <path d="M88 92 66 70" stroke="rgba(59, 7, 100, 0.45)" stroke-width="2.6" />
    <path d="M44 44 60 60l16-16" stroke="rgba(249, 168, 212, 0.85)" stroke-width="3" />
    <g stroke="url(#signalBurst)" stroke-width="3.6" opacity="0.85">
      <path d="M60 24v-8" />
      <path d="M44 28 38 20" />
      <path d="M76 28 82 20" />
    </g>
    <circle cx="60" cy="32" r="8" fill="url(#signalBurst)" stroke="rgba(249, 115, 22, 0.55)" stroke-width="2" />
    <circle cx="60" cy="32" r="3.2" fill="rgba(255, 255, 255, 0.85)" />
  </g>
</svg>
