<svg xmlns="http://www.w3.org/2000/svg" viewBox="0 0 128 128" role="img" aria-labelledby="title desc">
  <title id="title">Forest Tile</title>
  <desc id="desc">Stylised evergreen trees glowing against a deep night backdrop.</desc>
  <defs>
    <radialGradient id="forest-bg" cx="50%" cy="40%" r="75%">
      <stop offset="0%" stop-color="#0f172a" />
      <stop offset="100%" stop-color="#0b1120" />
    </radialGradient>
    <linearGradient id="forest-leaf" x1="0%" y1="0%" x2="100%" y2="100%">
      <stop offset="0%" stop-color="#4ade80" />
      <stop offset="100%" stop-color="#15803d" />
    </linearGradient>
    <linearGradient id="forest-trunk" x1="0%" y1="0%" x2="0%" y2="100%">
      <stop offset="0%" stop-color="#a855f7" />
      <stop offset="100%" stop-color="#7c3aed" />
    </linearGradient>
    <filter id="forest-glow" x="-40%" y="-40%" width="180%" height="180%">
      <feDropShadow dx="0" dy="6" stdDeviation="6" flood-color="#4ade80" flood-opacity="0.25" />
    </filter>
  </defs>
  <rect x="8" y="8" width="112" height="112" rx="24" fill="url(#forest-bg)" />
  <g filter="url(#forest-glow)" stroke="#bbf7d0" stroke-width="2">
    <path fill="url(#forest-leaf)" d="M64 26L32 80h18l-12 22h28l-10-22h16l-10 22h28l-12-22h18z" />
    <rect x="58" y="74" width="12" height="18" rx="3" fill="url(#forest-trunk)" />
    <path fill="none" stroke-linecap="round" stroke-opacity="0.5" d="M44 86c6-4 12-6 20-6s14 2 20 6" />
  </g>
  <circle cx="40" cy="40" r="6" fill="#fef3c7" opacity="0.6" />
  <circle cx="88" cy="32" r="4" fill="#fef3c7" opacity="0.4" />
</svg>
