<svg xmlns="http://www.w3.org/2000/svg" viewBox="0 0 128 128" role="img" aria-labelledby="title desc">
  <title id="title">Water Tile</title>
  <desc id="desc">Glowing waves surrounding a crystalline droplet.</desc>
  <defs>
    <radialGradient id="water-bg" cx="50%" cy="45%" r="75%">
      <stop offset="0%" stop-color="#0b1120" />
      <stop offset="100%" stop-color="#020617" />
    </radialGradient>
    <linearGradient id="water-wave" x1="0%" y1="0%" x2="100%" y2="100%">
      <stop offset="0%" stop-color="#38bdf8" />
      <stop offset="100%" stop-color="#0ea5e9" />
    </linearGradient>
    <linearGradient id="water-drop" x1="50%" y1="0%" x2="50%" y2="100%">
      <stop offset="0%" stop-color="#e0f2fe" />
      <stop offset="100%" stop-color="#0284c7" />
    </linearGradient>
    <filter id="water-glow" x="-30%" y="-30%" width="160%" height="160%">
      <feDropShadow dx="0" dy="4" stdDeviation="8" flood-color="#38bdf8" flood-opacity="0.3" />
    </filter>
  </defs>
  <rect x="8" y="8" width="112" height="112" rx="24" fill="url(#water-bg)" />
  <g filter="url(#water-glow)">
    <path d="M32 76c12-10 24-15 32-15s20 5 32 15" fill="none" stroke="url(#water-wave)" stroke-width="8" stroke-linecap="round" />
    <path d="M28 92c14-12 30-18 40-18s26 6 40 18" fill="none" stroke="url(#water-wave)" stroke-width="6" stroke-linecap="round" opacity="0.7" />
    <path d="M40 60c10-8 18-12 24-12s14 4 24 12" fill="none" stroke="url(#water-wave)" stroke-width="4" stroke-linecap="round" opacity="0.5" />
    <path d="M64 30c-12 20-18 32-18 42 0 11 8 20 18 20s18-9 18-20c0-10-6-22-18-42z" fill="url(#water-drop)" stroke="#e0f2fe" stroke-width="2" />
  </g>
  <circle cx="94" cy="34" r="6" fill="#f8fafc" opacity="0.45" />
</svg>
