<svg xmlns="http://www.w3.org/2000/svg" viewBox="0 0 64 64" width="64" height="64" role="img" aria-labelledby="title desc">
  <title id="title">Avanto Marauder v2</title>
  <desc id="desc">Premium illustration of the Avanto marauder clad in basalt armor, steaming hammer, and sauna embers.</desc>
  <defs>
    <linearGradient id="marauder-sky" x1="0%" y1="0%" x2="0%" y2="100%">
      <stop offset="0" stop-color="#080713" />
      <stop offset="1" stop-color="#1b1331" />
    </linearGradient>
    <radialGradient id="marauder-ember" cx="52%" cy="36%" r="80%">
      <stop offset="0" stop-color="#ffeede" stop-opacity="0.92" />
      <stop offset="0.48" stop-color="#ffbb7c" stop-opacity="0.54" />
      <stop offset="1" stop-color="#200c24" stop-opacity="0" />
    </radialGradient>
    <linearGradient id="marauder-armor" x1="24%" y1="8%" x2="80%" y2="92%">
      <stop offset="0" stop-color="#f7f5ff" />
      <stop offset="0.4" stop-color="#d2cff5" />
      <stop offset="0.78" stop-color="#8178c8" />
      <stop offset="1" stop-color="#413a7a" />
    </linearGradient>
    <linearGradient id="marauder-cloak" x1="18%" y1="16%" x2="90%" y2="92%">
      <stop offset="0" stop-color="#6337ff" />
      <stop offset="0.5" stop-color="#5c2dcb" />
      <stop offset="1" stop-color="#a95dff" />
    </linearGradient>
    <linearGradient id="marauder-hammer" x1="0%" y1="0%" x2="100%" y2="100%">
      <stop offset="0" stop-color="#ffe3b3" />
      <stop offset="0.5" stop-color="#ffb45c" />
      <stop offset="1" stop-color="#ff7640" />
    </linearGradient>
    <radialGradient id="marauder-halo" cx="50%" cy="20%" r="42%">
      <stop offset="0" stop-color="rgba(255,216,148,0.8)" />
      <stop offset="1" stop-color="rgba(255,216,148,0)" />
    </radialGradient>
    <radialGradient id="marauder-shadow" cx="50%" cy="88%" r="48%">
      <stop offset="0" stop-color="rgba(18,10,28,0.56)" />
      <stop offset="1" stop-color="rgba(18,10,28,0)" />
    </radialGradient>
  </defs>
  <g transform="translate(3.265306122, 0) scale(0.326530612)">
    <rect width="176" height="196" rx="30" fill="url(#marauder-sky)" />
    <circle cx="90" cy="78" r="82" fill="url(#marauder-ember)" />
    <ellipse cx="88" cy="164" rx="66" ry="22" fill="url(#marauder-shadow)" />
    <path d="M32 56c-18 32-18 70 0 104 10 20 26 38 42 48l-12 24c-24-14-44-38-54-66-14-42-6-84 24-110Z" fill="#190c2e" opacity="0.38" />
    <path d="M152 50c28 28 38 80 26 118-8 26-28 48-52 66l-12-24c18-12 32-30 38-48 10-32 4-68-16-94Z" fill="#11051f" opacity="0.4" />
    <path d="M44 68c-16 32-16 70 2 102l32 20c-4-36 6-70 36-96-26-8-48-16-70-26Z" fill="url(#marauder-cloak)" opacity="0.9" />
    <path d="M150 68c14 32 12 72-8 98l-30 20c4-36-6-68-34-92 24-8 46-16 72-26Z" fill="url(#marauder-cloak)" opacity="0.66" />
    <path d="M74 26 50 64c-12 18-20 40-20 62v30l32 66h54l34-68V110c0-24-8-46-20-62L100 26H74Z" fill="url(#marauder-armor)" stroke="#211545" stroke-width="3.4" stroke-linejoin="round" />
    <path d="M62 120h54l10 26c-18 20-32 30-34 30s-20-10-36-30l6-26Z" fill="#eeeaff" opacity="0.86" />
    <path d="M86 38c-14 0-30 10-40 22l16 18c18-12 50-12 64 0l16-18c-12-12-26-22-40-22Z" fill="#f9f6ff" stroke="#d7d0f6" stroke-width="2.6" />
    <path d="M70 22h32l12 14-26 18-26-18 8-14Z" fill="#f0ecff" stroke="#a8a0dc" stroke-width="2.2" />
    <path d="M62 140l16 44-30 20-24-54 26-14 12 4Z" fill="#5630b7" opacity="0.82" />
    <path d="M120 138l28-14-16 54-24-16 12-24Z" fill="#f7d6aa" opacity="0.74" />
    <path d="M30 124 12 144l46 44 22-22-50-42Z" fill="#4830ff" opacity="0.62" />
    <path d="M144 92c20-6 32-12 48-22-4-10-14-20-24-24-14 8-28 16-42 22l18 24Z" fill="#ff8d3b" stroke="#59260d" stroke-width="3" />
    <path d="M132 76 154 48l24-6c6 6 10 16 10 24-12 12-26 22-42 30l-14-20Z" fill="url(#marauder-hammer)" stroke="#7c3010" stroke-width="2.6" />
    <path d="M96 154c-14 0-28 12-34 26 14 10 26 14 40 14s26-4 40-14c-8-14-20-26-46-26Z" fill="#d8d2ff" stroke="#9f95ff" stroke-width="2" stroke-linejoin="round" />
    <path d="M78 104h24l4 12-18 10-18-10 8-12Z" fill="#211d3f" />
    <circle cx="90" cy="106" r="11" fill="#f5f1ff" stroke="#cfc7f7" stroke-width="1.8" />
    <path d="M70 82c-10 0-16 8-16 20 12-8 26-10 36-10s24 2 36 10c0-12-8-20-16-20H70Z" fill="#130e2c" opacity="0.78" />
    <path d="M76 60c-18 4-32 12-40 26l12 8c10-12 28-20 46-20s36 8 46 20l12-8c-10-14-26-22-42-26-12-2-24-2-34 0Z" fill="#2b1b54" opacity="0.44" />
    <g fill="rgba(255,206,156,0.32)">
      <circle cx="38" cy="44" r="5" />
      <circle cx="58" cy="34" r="4" />
      <circle cx="134" cy="32" r="6" />
      <circle cx="150" cy="48" r="4" />
      <circle cx="118" cy="22" r="3" />
    </g>
    <circle cx="90" cy="64" r="46" fill="url(#marauder-halo)" opacity="0.32" />
  </g>
</svg>
