<?xml version="1.0" encoding="UTF-8"?>
<svg xmlns="http://www.w3.org/2000/svg" viewBox="0 0 128 128" role="img" aria-labelledby="title desc">
  <title id="title">Avanto Marauder</title>
  <desc id="desc">Frost-clad marauder icon with jagged pauldrons, icy beard, and polar glow.</desc>
  <defs>
    <linearGradient id="bg" x1="0" y1="0" x2="0" y2="1">
      <stop offset="0%" stop-color="#082f49" />
      <stop offset="100%" stop-color="#0f172a" />
    </linearGradient>
    <linearGradient id="armor" x1="0" y1="0" x2="0" y2="1">
      <stop offset="0%" stop-color="#e2e8f0" />
      <stop offset="60%" stop-color="#94a3b8" />
      <stop offset="100%" stop-color="#1f2937" />
    </linearGradient>
    <linearGradient id="beard" x1="0" y1="0" x2="0" y2="1">
      <stop offset="0%" stop-color="#e0f2fe" />
      <stop offset="100%" stop-color="#bae6fd" />
    </linearGradient>
    <radialGradient id="glow" cx="50%" cy="20%" r="60%">
      <stop offset="0%" stop-color="rgba(191, 219, 254, 0.85)" />
      <stop offset="100%" stop-color="rgba(14, 116, 144, 0)" />
    </radialGradient>
  </defs>
  <rect width="128" height="128" rx="20" fill="url(#bg)" />
  <circle cx="64" cy="46" r="38" fill="url(#glow)" opacity="0.85" />
  <path d="M64 18c-14 0-26 8-32 20l10 4c6-8 14-12 22-12s16 4 22 12l10-4C90 26 78 18 64 18z" fill="#cffafe" opacity="0.4" />
  <path d="M64 36c-14 0-28 10-28 28v10l-12 16 18 10 22-10 22 10 18-10-12-16V64c0-18-14-28-28-28z" fill="url(#armor)" stroke="#0f172a" stroke-width="2" stroke-linejoin="round" />
  <path d="M48 90l-12 6-10 20 20-8 18 8 18-8 20 8-10-20-12-6" fill="#0f172a" opacity="0.85" />
  <path d="M64 46c-10 0-18 8-18 18v10c12-8 24-8 36 0V64c0-10-8-18-18-18z" fill="#0f172a" />
  <path d="M64 50c-8 0-14 6-14 14 6-4 12-6 14-6s8 2 14 6c0-8-6-14-14-14z" fill="#bae6fd" opacity="0.85" />
  <path d="M58 84c-4 0-8 2-10 6 4 0 8 0 10-2s4-2 6-2 4 0 6 2 6 2 10 2c-2-4-6-6-10-6h-12z" fill="#f8fafc" opacity="0.75" />
  <path d="M64 86c-6 0-12 4-14 10 4 2 10 4 14 4s10-2 14-4c-2-6-8-10-14-10z" fill="url(#beard)" stroke="#bae6fd" stroke-width="1.4" stroke-linejoin="round" />
  <path d="M42 64c-4-8-6-18-6-28-6 8-10 18-10 30 4-2 10-2 16-2z" fill="#0ea5e9" opacity="0.5" />
  <path d="M86 64c4-8 6-18 6-28 6 8 10 18 10 30-4-2-10-2-16-2z" fill="#0ea5e9" opacity="0.5" />
  <path d="M34 98c-6 2-12 6-14 12 6 0 12-2 18-4" stroke="#bae6fd" stroke-width="2" stroke-linecap="round" />
  <path d="M94 106c6 2 12 4 18 4-2-6-8-10-14-12" stroke="#bae6fd" stroke-width="2" stroke-linecap="round" />
</svg>
