<svg xmlns="http://www.w3.org/2000/svg" viewBox="0 0 128 128">
  <defs>
    <linearGradient id="lake-base" x1="0" y1="0" x2="0" y2="1">
      <stop offset="0" stop-color="#6bc7ff" />
      <stop offset="1" stop-color="#1c5fb5" />
    </linearGradient>
    <radialGradient id="lake-glow" cx="64" cy="56" r="56" gradientUnits="userSpaceOnUse">
      <stop offset="0" stop-color="#c9f4ff" />
      <stop offset="1" stop-color="#4aa5e2" stop-opacity="0" />
    </radialGradient>
  </defs>
  <path d="M64 10 118 64 64 118 10 64z" fill="#0f2a4c" stroke="#0a1629" stroke-width="4" stroke-linejoin="round" />
  <path d="M26 64c10-24 36-40 62-38 18 2 30 12 30 38l-54 54z" fill="#123b6e" opacity="0.8" />
  <ellipse cx="64" cy="70" rx="40" ry="30" fill="url(#lake-base)" stroke="#0c3d6b" stroke-width="4" />
  <ellipse cx="64" cy="64" rx="34" ry="24" fill="url(#lake-glow)" />
  <g fill="none" stroke="#d6f0ff" stroke-width="4" stroke-linecap="round" stroke-dasharray="24 18" opacity="0.7">
    <ellipse cx="64" cy="70" rx="30" ry="20" />
    <ellipse cx="64" cy="70" rx="20" ry="14" />
  </g>
  <g fill="#8cdcf5" stroke="#ffffff" stroke-width="3" stroke-linecap="round" opacity="0.8">
    <path d="M44 60c6-4 14-6 20-6s14 2 20 6" />
    <path d="M48 78c6-2 12-4 16-4s10 2 16 4" />
  </g>
  <g fill="#6bd3ff" opacity="0.6">
    <circle cx="40" cy="66" r="4" />
    <circle cx="86" cy="74" r="3" />
    <circle cx="68" cy="58" r="2.5" />
  </g>
</svg>
