<svg xmlns="http://www.w3.org/2000/svg" viewBox="0 0 128 128">
  <defs>
    <linearGradient id="plains-base" x1="0" x2="0" y1="0" y2="1">
      <stop offset="0" stop-color="#dbe9a4" />
      <stop offset="1" stop-color="#8fbe4d" />
    </linearGradient>
    <linearGradient id="plains-light" x1="0" x2="1" y1="0" y2="1">
      <stop offset="0" stop-color="#f5ffd9" stop-opacity="0.9" />
      <stop offset="1" stop-color="#b5d86a" stop-opacity="0" />
    </linearGradient>
  </defs>
  <path d="M64 8 116 64 64 120 12 64z" fill="url(#plains-base)" stroke="#4c7c2a" stroke-width="4" stroke-linejoin="round" />
  <path d="M64 24 100 64 64 104 28 64z" fill="url(#plains-light)" />
  <g fill="none" stroke-linecap="round" stroke-width="4">
    <path d="M42 70c4-6 12-10 20-10s16 4 20 10" stroke="#5f9236" />
    <path d="M36 84c6-6 18-12 28-12s22 6 28 12" stroke="#4c7c2a" />
    <path d="M40 56c4-4 12-6 24-6s20 2 24 6" stroke="#75a542" opacity="0.7" />
  </g>
  <g fill="#f6f5b8" stroke="#b5a321" stroke-width="3" stroke-linecap="round">
    <path d="M48 86c2 4 4 6 6 6s4-2 6-6" />
    <path d="M68 86c2 4 4 6 6 6s4-2 6-6" />
  </g>
</svg>
