<svg xmlns="http://www.w3.org/2000/svg" viewBox="0 0 64 64" width="64" height="64" role="img" aria-labelledby="title desc">
  <title id="title">Auric Warder v2</title>
  <desc id="desc">Polished illustration of the Saunoja frontline warder with luminous shield, aurora-lit cape, and gilded blade.</desc>
  <defs>
    <radialGradient id="soldier-aura" cx="54%" cy="32%" r="78%">
      <stop offset="0" stop-color="#f6fbff" stop-opacity="0.98" />
      <stop offset="0.42" stop-color="#c6dcff" stop-opacity="0.62" />
      <stop offset="1" stop-color="#13223d" stop-opacity="0" />
    </radialGradient>
    <linearGradient id="soldier-sky" x1="0%" y1="0%" x2="0%" y2="100%">
      <stop offset="0" stop-color="#040b1d" />
      <stop offset="1" stop-color="#10254a" />
    </linearGradient>
    <linearGradient id="soldier-armor" x1="18%" y1="6%" x2="84%" y2="94%">
      <stop offset="0" stop-color="#f9fbff" />
      <stop offset="0.38" stop-color="#dce8ff" />
      <stop offset="0.76" stop-color="#95afd6" />
      <stop offset="1" stop-color="#4b5d82" />
    </linearGradient>
    <linearGradient id="soldier-cape" x1="22%" y1="12%" x2="86%" y2="96%">
      <stop offset="0" stop-color="#2d84ff" />
      <stop offset="0.52" stop-color="#3878f2" />
      <stop offset="1" stop-color="#12c6ff" />
    </linearGradient>
    <linearGradient id="soldier-gold" x1="12%" y1="0%" x2="88%" y2="100%">
      <stop offset="0" stop-color="#fff4d0" />
      <stop offset="0.45" stop-color="#f7c85a" />
      <stop offset="1" stop-color="#e58c19" />
    </linearGradient>
    <radialGradient id="soldier-shield" cx="48%" cy="46%" r="72%">
      <stop offset="0" stop-color="#fdf6d8" />
      <stop offset="0.38" stop-color="#a4d8ff" />
      <stop offset="0.78" stop-color="#2d68de" />
      <stop offset="1" stop-color="#12326d" />
    </radialGradient>
    <linearGradient id="soldier-sword" x1="0%" y1="0%" x2="0%" y2="100%">
      <stop offset="0" stop-color="#f1f8ff" />
      <stop offset="0.55" stop-color="#a1c7ff" />
      <stop offset="1" stop-color="#16274d" />
    </linearGradient>
    <radialGradient id="soldier-shadow" cx="50%" cy="86%" r="46%">
      <stop offset="0" stop-color="rgba(10,16,32,0.52)" />
      <stop offset="1" stop-color="rgba(10,16,32,0)" />
    </radialGradient>
    <radialGradient id="soldier-highlight" cx="52%" cy="22%" r="42%">
      <stop offset="0" stop-color="rgba(255,255,255,0.8)" />
      <stop offset="1" stop-color="rgba(255,255,255,0)" />
    </radialGradient>
  </defs>
  <g transform="translate(4.173913043, 0) scale(0.347826087)">
    <rect width="160" height="184" rx="26" fill="url(#soldier-sky)" />
    <circle cx="84" cy="70" r="74" fill="url(#soldier-aura)" />
    <path d="M26 38c-4 16 10 40 6 60-4 22 6 36 20 44l-10 18c-16-10-28-28-34-50-6-26 2-52 18-72Z" fill="#10325d" opacity="0.34" />
    <path d="M142 34c16 18 26 46 20 74-6 24-18 42-36 52l-10-18c14-8 24-26 22-44-4-22 12-44 4-64Z" fill="#0b213c" opacity="0.36" />
    <ellipse cx="82" cy="150" rx="58" ry="18" fill="url(#soldier-shadow)" />
    <path d="M38 58c-12 28-10 58 4 86l26 12c-2-30 8-58 30-78-24-6-42-12-60-20Z" fill="url(#soldier-cape)" opacity="0.82" />
    <path d="M136 60c12 28 12 58-2 84l-24 12c4-30-6-58-28-78 20-6 38-10 54-18Z" fill="url(#soldier-cape)" opacity="0.58" />
    <path d="M68 26 46 58c-12 16-18 34-18 54v28l26 56h50l28-58V98c0-22-8-40-20-54L92 26H68Z" fill="url(#soldier-armor)" stroke="#162c4b" stroke-width="3" stroke-linejoin="round" />
    <path d="M58 104h48l8 22c-16 18-30 26-32 26s-18-8-34-26l10-22Z" fill="#e8f1ff" opacity="0.9" />
    <path d="M80 38c-12 0-26 8-36 20l14 16c16-10 46-10 60 0l14-16c-10-12-24-20-38-20Z" fill="#f8fbff" stroke="#cdd9f0" stroke-width="2.6" />
    <path d="M66 22h30l10 12-24 16-26-16 10-12Z" fill="#ebf2ff" stroke="#9db1d8" stroke-width="2" />
    <path d="M60 126l14 38-26 16-20-46 22-12 10 4Z" fill="url(#soldier-gold)" opacity="0.96" />
    <path d="M108 124l24-12-16 48-22-14 14-22Z" fill="#ffefd6" opacity="0.72" />
    <path d="M36 112 18 128l36 38 22-18-40-36Z" fill="url(#soldier-shield)" stroke="#13377a" stroke-width="2.8" />
    <circle cx="52" cy="132" r="13" fill="rgba(255,255,255,0.45)" />
    <path d="M126 102 108 90l-34 78 16 12 36-78Z" fill="url(#soldier-sword)" stroke="#091832" stroke-width="2.8" stroke-linejoin="round" />
    <path d="M90 96 70 146l20 10 28-60-28 0Z" fill="#f4f7ff" opacity="0.74" />
    <path d="M80 148c-12 0-24 10-30 22 12 8 22 12 34 12s22-4 34-12c-6-12-18-22-38-22Z" fill="#d8e8ff" stroke="#9ccaff" stroke-width="1.9" stroke-linejoin="round" />
    <path d="M68 90h22l4 12-16 8-16-8 6-12Z" fill="#172a46" />
    <circle cx="80" cy="92" r="10" fill="#f4f8ff" stroke="#c5d6f0" stroke-width="1.8" />
    <path d="M62 68c-8 0-14 8-14 18 10-6 22-8 32-8s22 2 32 8c0-10-6-18-14-18H62Z" fill="#0c1730" opacity="0.84" />
    <path d="M70 54c14-4 26-4 40 0 6 2 10 6 12 10l-12 8c-16-6-32-6-48 0l-12-8c2-4 6-8 12-10Z" fill="#173a6a" opacity="0.42" />
    <g fill="rgba(226,242,255,0.45)">
      <circle cx="30" cy="44" r="4" />
      <circle cx="44" cy="32" r="3" />
      <circle cx="124" cy="36" r="5" />
      <circle cx="136" cy="50" r="3" />
      <circle cx="116" cy="26" r="3" />
    </g>
    <circle cx="82" cy="62" r="42" fill="url(#soldier-highlight)" opacity="0.28" />
  </g>
</svg>
