<?xml version="1.0" encoding="UTF-8"?>
<svg xmlns="http://www.w3.org/2000/svg" viewBox="0 0 128 128" role="img" aria-labelledby="title desc">
  <title id="title">Auric Warder</title>
  <desc id="desc">Runic soldier with aurora-lit shield, sculpted armor, and crystalline broadsword.</desc>
  <defs>
    <linearGradient id="soldier-panel" x1="0" y1="0" x2="0" y2="1">
      <stop offset="0%" stop-color="#091522" />
      <stop offset="100%" stop-color="#102a46" />
    </linearGradient>
    <radialGradient id="soldier-halo" cx="52%" cy="18%" r="68%">
      <stop offset="0%" stop-color="rgba(186, 230, 253, 0.92)" />
      <stop offset="45%" stop-color="rgba(59, 130, 246, 0.42)" />
      <stop offset="100%" stop-color="rgba(15, 23, 42, 0)" />
    </radialGradient>
    <linearGradient id="soldier-armor" x1="0" y1="0" x2="0" y2="1">
      <stop offset="0%" stop-color="#f8fafc" />
      <stop offset="55%" stop-color="#cbd5f5" />
      <stop offset="100%" stop-color="#475569" />
    </linearGradient>
    <linearGradient id="soldier-gold" x1="0" y1="0" x2="1" y2="1">
      <stop offset="0%" stop-color="#fde68a" />
      <stop offset="45%" stop-color="#fbbf24" />
      <stop offset="100%" stop-color="#f97316" />
    </linearGradient>
    <linearGradient id="soldier-cloak" x1="0" y1="0" x2="1" y2="1">
      <stop offset="0%" stop-color="#1d4ed8" />
      <stop offset="100%" stop-color="#0ea5e9" />
    </linearGradient>
    <linearGradient id="soldier-shield" x1="0" y1="0" x2="0" y2="1">
      <stop offset="0%" stop-color="#bfdbfe" />
      <stop offset="65%" stop-color="#60a5fa" />
      <stop offset="100%" stop-color="#1d4ed8" />
    </linearGradient>
    <radialGradient id="soldier-shield-core" cx="40%" cy="40%" r="45%">
      <stop offset="0%" stop-color="#fef3c7" />
      <stop offset="100%" stop-color="rgba(248, 250, 252, 0)" />
    </radialGradient>
    <linearGradient id="soldier-sword" x1="0" y1="0" x2="0" y2="1">
      <stop offset="0%" stop-color="#e0f2fe" />
      <stop offset="100%" stop-color="#1f2937" />
    </linearGradient>
  </defs>
  <rect width="128" height="128" rx="18" fill="url(#soldier-panel)" />
  <circle cx="64" cy="40" r="46" fill="url(#soldier-halo)" />
  <ellipse cx="64" cy="110" rx="34" ry="11" fill="#0f172a" opacity="0.45" />
  <path d="M34 38c-8 15-11 34-6 52l18 10c-2-22 6-40 20-50-12-4-22-8-32-12z" fill="url(#soldier-cloak)" opacity="0.88" />
  <path d="M94 38c8 15 11 34 6 52l-18 10c2-22-6-40-20-50 12-4 22-8 32-12z" fill="url(#soldier-cloak)" opacity="0.68" />
  <path d="M58 18l-12 14c-5 7-8 17-8 28v20l14 42h24l14-42V60c0-11-3-21-8-28L70 18H58z" fill="url(#soldier-armor)" stroke="#1f2937" stroke-width="2.4" stroke-linejoin="round" />
  <path d="M46 60h36l6 16c-10 10-20 16-24 16s-14-6-24-16l6-16z" fill="#e0f2fe" opacity="0.92" />
  <path d="M64 24c-7 0-14 5-20 12l8 10c8-6 24-6 32 0l8-10c-6-7-13-12-20-12z" fill="#f8fafc" stroke="#cbd5f5" stroke-width="2" />
  <path d="M56 16h16l6 8-14 8-14-8 6-8z" fill="#e2e8f0" stroke="#94a3b8" stroke-width="1.8" />
  <path d="M52 74h12l2 20-10 12-10-12 6-20z" fill="url(#soldier-gold)" opacity="0.92" />
  <path d="M64 96l10 10 10-12-6-20H66l-2 22z" fill="#fef3c7" opacity="0.72" />
  <path d="M32 68l-12 6 14 32 16-8-18-30z" fill="url(#soldier-shield)" stroke="#1e3a8a" stroke-width="2.2" />
  <circle cx="36" cy="82" r="8" fill="url(#soldier-shield-core)" />
  <path d="M96 60l-6-6-22 44 8 10 20-48z" fill="url(#soldier-sword)" stroke="#0f172a" stroke-width="2.2" stroke-linejoin="round" />
  <path d="M86 50l-18 40 12 6 16-36-10-10z" fill="#f8fafc" opacity="0.7" />
  <path d="M64 102c-9 0-18 7-22 16 8 6 14 8 22 8s14-2 22-8c-4-9-13-16-22-16z" fill="#dbeafe" stroke="#93c5fd" stroke-width="1.6" stroke-linejoin="round" />
  <path d="M58 56h12l3 10-9 6-9-6 3-10z" fill="#1f2937" opacity="0.85" />
  <circle cx="64" cy="58" r="7" fill="#f1f5f9" stroke="#cbd5f5" stroke-width="1.4" />
  <path d="M54 44c-5 0-8 5-8 12 6-3 12-6 18-6s12 3 18 6c0-7-3-12-8-12H54z" fill="#0f172a" opacity="0.82" />
</svg>
