<?xml version="1.0" encoding="UTF-8"?>
<svg xmlns="http://www.w3.org/2000/svg" viewBox="0 0 128 128" role="img" aria-labelledby="title desc">
  <title id="title">Glacier Warden</title>
  <desc id="desc">Frost archer drawing a luminous bow amid drifting snow and aurora light.</desc>
  <defs>
    <linearGradient id="archer-panel" x1="0" y1="0" x2="0" y2="1">
      <stop offset="0%" stop-color="#07101d" />
      <stop offset="100%" stop-color="#102337" />
    </linearGradient>
    <radialGradient id="archer-halo" cx="46%" cy="22%" r="70%">
      <stop offset="0%" stop-color="rgba(191, 219, 254, 0.95)" />
      <stop offset="55%" stop-color="rgba(59, 130, 246, 0.4)" />
      <stop offset="100%" stop-color="rgba(15, 23, 42, 0)" />
    </radialGradient>
    <linearGradient id="archer-cloak" x1="0" y1="0" x2="1" y2="1">
      <stop offset="0%" stop-color="#0ea5e9" />
      <stop offset="100%" stop-color="#6366f1" />
    </linearGradient>
    <linearGradient id="archer-leather" x1="0" y1="0" x2="0" y2="1">
      <stop offset="0%" stop-color="#fef3c7" />
      <stop offset="100%" stop-color="#fbbf24" />
    </linearGradient>
    <linearGradient id="archer-armor" x1="0" y1="0" x2="0" y2="1">
      <stop offset="0%" stop-color="#f1f5f9" />
      <stop offset="100%" stop-color="#334155" />
    </linearGradient>
    <linearGradient id="archer-bow" x1="0" y1="0" x2="1" y2="1">
      <stop offset="0%" stop-color="#fde68a" />
      <stop offset="100%" stop-color="#f59e0b" />
    </linearGradient>
    <radialGradient id="archer-arrow" cx="70%" cy="40%" r="45%">
      <stop offset="0%" stop-color="#f8fafc" />
      <stop offset="100%" stop-color="#93c5fd" />
    </radialGradient>
    <linearGradient id="archer-snow" x1="0" y1="0" x2="0" y2="1">
      <stop offset="0%" stop-color="#1e293b" />
      <stop offset="100%" stop-color="#0f172a" />
    </linearGradient>
  </defs>
  <rect width="128" height="128" rx="18" fill="url(#archer-panel)" />
  <circle cx="64" cy="44" r="48" fill="url(#archer-halo)" />
  <ellipse cx="68" cy="110" rx="36" ry="12" fill="#0f172a" opacity="0.48" />
  <path d="M36 40c-10 16-12 36-6 54l18 12c-2-24 10-44 24-54-14-4-26-8-36-12z" fill="url(#archer-cloak)" opacity="0.86" />
  <path d="M98 44c6 16 6 36-2 52l-18 10c2-20-4-38-18-50 14-4 26-8 38-12z" fill="url(#archer-cloak)" opacity="0.65" />
  <path d="M58 20l-12 16c-6 8-9 18-9 30v18l18 38h24l18-38V66c0-12-3-22-9-30L70 20H58z" fill="url(#archer-armor)" stroke="#1f2937" stroke-width="2.2" stroke-linejoin="round" />
  <path d="M46 66h36l6 16c-12 12-22 18-24 18s-12-6-24-18l6-16z" fill="#e0f2fe" opacity="0.9" />
  <path d="M64 28c-8 0-15 6-22 14l8 10c8-6 28-6 36 0l8-10c-7-8-14-14-22-14z" fill="#f8fafc" stroke="#cbd5f5" stroke-width="1.8" />
  <path d="M56 18h16l6 8-14 10-14-10 6-8z" fill="#e2e8f0" stroke="#94a3b8" stroke-width="1.6" />
  <path d="M48 80l10 30-16 8-14-34 12-6 8 2z" fill="url(#archer-leather)" opacity="0.9" />
  <path d="M80 78l16-6-6 36-16-10 6-20z" fill="#fef3c7" opacity="0.7" />
  <path d="M32 70l-10 8 22 28 12-10-24-26z" fill="url(#archer-bow)" stroke="#92400e" stroke-width="2" stroke-linejoin="round" />
  <path d="M90 60c12 0 22 12 22 22s-10 20-22 20-20-10-20-20 8-22 20-22z" fill="none" stroke="#fde68a" stroke-width="4" stroke-linecap="round" />
  <path d="M90 60c8 4 14 12 14 22s-6 18-14 22" fill="none" stroke="#f59e0b" stroke-width="2" stroke-linecap="round" />
  <path d="M44 62l12-8 28 24-10 12-30-28z" fill="url(#archer-leather)" stroke="#92400e" stroke-width="1.6" />
  <path d="M90 66l18-4-10 12h-20l12-8z" fill="url(#archer-arrow)" />
  <path d="M64 108c-8 0-18 6-22 14 8 6 16 8 24 8s16-2 24-8c-4-8-14-14-26-14z" fill="#dbeafe" stroke="#93c5fd" stroke-width="1.4" stroke-linejoin="round" />
  <path d="M60 58h12l3 8-9 6-9-6 3-8z" fill="#1e293b" />
  <circle cx="64" cy="60" r="6" fill="#f8fafc" stroke="#cbd5f5" stroke-width="1.2" />
  <path d="M52 46c-6 0-10 6-10 14 6-4 14-6 22-6s16 2 22 6c0-8-4-14-10-14H52z" fill="#0f172a" opacity="0.8" />
  <g fill="#f8fafc" opacity="0.45">
    <circle cx="24" cy="28" r="3" />
    <circle cx="34" cy="22" r="2" />
    <circle cx="20" cy="48" r="2" />
    <circle cx="30" cy="58" r="1.8" />
    <circle cx="104" cy="24" r="3.5" />
    <circle cx="110" cy="40" r="2.4" />
    <circle cx="98" cy="34" r="2" />
  </g>
  <path d="M18 106c10-6 22-8 34-6 16 2 30 0 44-8 10-6 18-16 20-26-2 18-12 32-28 40-16 8-36 8-54 0-6-2-12-0.5-16 4z" fill="url(#archer-snow)" opacity="0.5" />
</svg>
