<?xml version="1.0" encoding="UTF-8"?>
<svg xmlns="http://www.w3.org/2000/svg" viewBox="0 0 128 128" role="img" aria-labelledby="title desc">
  <title id="title">Avanto Marauder</title>
  <desc id="desc">Feral marauder with icy axes, frostbitten armor, and blizzard backdrop.</desc>
  <defs>
    <linearGradient id="marauder-panel" x1="0" y1="0" x2="0" y2="1">
      <stop offset="0%" stop-color="#040910" />
      <stop offset="100%" stop-color="#0e1a2a" />
    </linearGradient>
    <radialGradient id="marauder-halo" cx="52%" cy="22%" r="72%">
      <stop offset="0%" stop-color="rgba(191, 219, 254, 0.95)" />
      <stop offset="60%" stop-color="rgba(59, 130, 246, 0.45)" />
      <stop offset="100%" stop-color="rgba(15, 23, 42, 0)" />
    </radialGradient>
    <linearGradient id="marauder-fur" x1="0" y1="0" x2="1" y2="1">
      <stop offset="0%" stop-color="#475569" />
      <stop offset="100%" stop-color="#0f172a" />
    </linearGradient>
    <linearGradient id="marauder-armor" x1="0" y1="0" x2="0" y2="1">
      <stop offset="0%" stop-color="#e0f2fe" />
      <stop offset="70%" stop-color="#64748b" />
      <stop offset="100%" stop-color="#111827" />
    </linearGradient>
    <linearGradient id="marauder-wrap" x1="0" y1="0" x2="1" y2="1">
      <stop offset="0%" stop-color="#fcd34d" />
      <stop offset="100%" stop-color="#f97316" />
    </linearGradient>
    <linearGradient id="marauder-axe" x1="0" y1="0" x2="0" y2="1">
      <stop offset="0%" stop-color="#cbd5f5" />
      <stop offset="100%" stop-color="#1e293b" />
    </linearGradient>
    <radialGradient id="marauder-crack" cx="38%" cy="48%" r="54%">
      <stop offset="0%" stop-color="#60a5fa" />
      <stop offset="100%" stop-color="rgba(59, 130, 246, 0)" />
    </radialGradient>
    <linearGradient id="marauder-ground" x1="0" y1="0" x2="1" y2="0">
      <stop offset="0%" stop-color="#1e293b" />
      <stop offset="100%" stop-color="#0f172a" />
    </linearGradient>
  </defs>
  <rect width="128" height="128" rx="18" fill="url(#marauder-panel)" />
  <circle cx="66" cy="46" r="50" fill="url(#marauder-halo)" />
  <ellipse cx="66" cy="110" rx="38" ry="12" fill="#020617" opacity="0.55" />
  <path d="M24 100c10-18 34-28 62-24 12 2 26-2 34-12-6 26-24 40-52 44-18 4-34 0-44-8z" fill="url(#marauder-ground)" opacity="0.6" />
  <path d="M34 34c-8 16-10 36-4 54l18 14c-4-26 4-48 20-60-14-4-24-6-34-8z" fill="url(#marauder-fur)" opacity="0.85" />
  <path d="M102 32c10 18 14 40 8 58l-18 12c4-26-4-50-20-62 12-2 22-4 30-8z" fill="url(#marauder-fur)" opacity="0.7" />
  <path d="M58 18 42 36c-8 9-12 21-12 34v20l18 40h32l18-40V70c0-13-4-25-12-34L74 18H58z" fill="url(#marauder-armor)" stroke="#0f172a" stroke-width="2.6" stroke-linejoin="round" />
  <path d="M48 72h36l8 18c-12 12-24 20-26 20s-14-8-26-20l8-18z" fill="#e2e8f0" opacity="0.88" />
  <path d="M64 26c-10 0-18 6-26 14l10 12c8-6 28-6 36 0l10-12c-8-8-16-14-30-14z" fill="#f8fafc" stroke="#cbd5f5" stroke-width="2" />
  <path d="M54 14h18l8 10-18 10-18-10 10-10z" fill="#e0e7ff" stroke="#94a3b8" stroke-width="2" />
  <path d="M50 88l8 28-18 10-16-34 16-8 10 4z" fill="url(#marauder-wrap)" opacity="0.92" />
  <path d="M82 86l18-8-10 36-16-10 8-18z" fill="#fef3c7" opacity="0.65" />
  <path d="M28 78l-12 10 26 26 16-12-30-24z" fill="url(#marauder-axe)" stroke="#0f172a" stroke-width="2.2" stroke-linejoin="round" />
  <path d="M30 80c10-6 18-4 26 2l-8 12-18-14z" fill="#f8fafc" opacity="0.78" />
  <path d="M102 74c12-4 20 2 26 12l-32 18-12-12 18-18z" fill="url(#marauder-axe)" stroke="#020617" stroke-width="2.2" stroke-linejoin="round" />
  <path d="M102 74c8-2 12 2 16 8l-16 10-8-8 8-10z" fill="#f8fafc" opacity="0.75" />
  <path d="M64 110c-10 0-20 8-24 18 10 6 18 8 28 8s18-2 28-8c-6-10-16-18-32-18z" fill="#dbeafe" stroke="#93c5fd" stroke-width="1.8" stroke-linejoin="round" />
  <path d="M58 62h12l4 10-10 8-10-8 4-10z" fill="#0f172a" opacity="0.8" />
  <circle cx="64" cy="64" r="7" fill="#f8fafc" stroke="#cbd5f5" stroke-width="1.4" />
  <path d="M50 46c-6 0-10 6-10 14 8-4 16-6 24-6s16 2 24 6c0-8-4-14-10-14H50z" fill="#020617" opacity="0.85" />
  <path d="M70 98c-4 0-6 4-6 8 0 8 6 14 10 14s10-6 10-14c0-4-2-8-6-8H70z" fill="#0f172a" opacity="0.75" />
  <path d="M42 54c-4 0-6 4-6 8 0 8 4 12 8 12s8-4 8-12c0-4-2-8-6-8h-4z" fill="#0f172a" opacity="0.75" />
  <path d="M94 54c-4 0-6 4-6 8 0 8 4 12 8 12s8-4 8-12c0-4-2-8-6-8h-4z" fill="#0f172a" opacity="0.75" />
  <path d="M26 30c10 2 20-4 30-10 8-4 22-6 34-2 10 4 22 0 28-6-4 10-12 18-24 20-12 2-26 0-42 4-8 2-18 2-26-6z" fill="#0ea5e9" opacity="0.35" />
  <path d="M14 56c12 4 22 4 34 0 14-4 28-6 44 0 12 4 22 4 32 0-10 8-20 12-32 12-14 0-30-6-46-6-12 0-24 2-32-6z" fill="url(#marauder-crack)" opacity="0.45" />
</svg>
