<svg xmlns="http://www.w3.org/2000/svg" viewBox="0 0 64 64" role="img" aria-labelledby="title desc">
  <title id="title">Sauna Beer Icon</title>
  <desc id="desc">A premium amber sauna beer bottle with frosted glass, gilded label, and cool condensation.</desc>
  <defs>
    <linearGradient id="bottle-glass" x1="30%" y1="0%" x2="70%" y2="100%">
      <stop offset="0%" stop-color="#fde68a" stop-opacity="0.95" />
      <stop offset="25%" stop-color="#f59e0b" stop-opacity="0.92" />
      <stop offset="55%" stop-color="#d97706" stop-opacity="0.98" />
      <stop offset="85%" stop-color="#92400e" />
      <stop offset="100%" stop-color="#78350f" />
    </linearGradient>
    <linearGradient id="bottle-highlight" x1="0%" y1="0%" x2="0%" y2="100%">
      <stop offset="0%" stop-color="#ffffff" stop-opacity="0.75" />
      <stop offset="35%" stop-color="#fde68a" stop-opacity="0.38" />
      <stop offset="70%" stop-color="#fbbf24" stop-opacity="0.18" />
      <stop offset="100%" stop-color="#f59e0b" stop-opacity="0.05" />
    </linearGradient>
    <linearGradient id="bottle-cap" x1="0%" y1="0%" x2="100%" y2="100%">
      <stop offset="0%" stop-color="#f8fafc" />
      <stop offset="40%" stop-color="#cbd5f5" />
      <stop offset="100%" stop-color="#64748b" />
    </linearGradient>
    <linearGradient id="label-band" x1="0%" y1="0%" x2="100%" y2="0%">
      <stop offset="0%" stop-color="#fcd34d" />
      <stop offset="50%" stop-color="#facc15" />
      <stop offset="100%" stop-color="#f97316" />
    </linearGradient>
    <radialGradient id="label-emblem" cx="50%" cy="50%" r="50%">
      <stop offset="0%" stop-color="#fef3c7" />
      <stop offset="55%" stop-color="#fde68a" />
      <stop offset="100%" stop-color="#d97706" />
    </radialGradient>
    <filter id="bottle-shadow" x="-25%" y="-25%" width="150%" height="160%">
      <feDropShadow dx="0" dy="6" stdDeviation="6" flood-color="#0f172a" flood-opacity="0.45" />
      <feDropShadow dx="0" dy="2" stdDeviation="2" flood-color="#fbbf24" flood-opacity="0.35" />
    </filter>
  </defs>
  <g filter="url(#bottle-shadow)">
    <path
      d="M27 8c0-2 1.6-4 5-4s5 2 5 4v7c0 1.1 0.9 2 2 2h1.2c1.6 0 2.8 1.4 2.6 3l-0.6 5.3c-0.2 1.6-0.4 2.9-0.4 4.5v19.2c0 5-3.6 9.2-8.5 9.8-2.5 0.3-5 0.3-7.5 0-4.9-0.6-8.5-4.8-8.5-9.8V29.8c0-1.6-0.2-2.9-0.4-4.5L19.3 20c-0.2-1.6 1-3 2.6-3H23c1.1 0 2-0.9 2-2z"
      fill="url(#bottle-glass)"
      stroke="#fef3c7"
      stroke-width="1.4"
      stroke-linejoin="round"
    />
    <path
      d="M30.6 6h2.8c0.9 0 1.6 0.7 1.6 1.6v3.8c0 0.9-0.7 1.6-1.6 1.6h-2.8c-0.9 0-1.6-0.7-1.6-1.6V7.6c0-0.9 0.7-1.6 1.6-1.6z"
      fill="#fde68a"
      stroke="#facc15"
      stroke-width="1.2"
      stroke-linejoin="round"
    />
    <path
      d="M29 13h6c0.8 0 1.5 0.6 1.6 1.4l0.4 3.6c0.2 1.2-0.7 2.3-2 2.3h-6c-1.3 0-2.2-1.1-2-2.3l0.4-3.6c0.1-0.8 0.8-1.4 1.6-1.4z"
      fill="url(#bottle-cap)"
      stroke="#c4cfdc"
      stroke-width="1.1"
      stroke-linejoin="round"
    />
    <rect x="21" y="26" width="22" height="16" rx="5" fill="url(#label-band)" stroke="#fef3c7" stroke-width="1.3" />
    <circle cx="32" cy="34" r="6" fill="url(#label-emblem)" stroke="#fde68a" stroke-width="1.1" />
    <path
      d="M28.5 33.7c1.1-2 3-3.1 5.3-3.1 1.9 0 3.5 0.7 4.6 2.1 0.3 0.4 0.3 0.9-0.1 1.3l-1.2 1.2c-0.4 0.4-1 0.4-1.4 0-0.5-0.6-1.3-1-2.1-1-1.3 0-2.2 0.7-2.8 1.8-0.3 0.6-0.9 0.8-1.4 0.5l-1.3-0.8c-0.6-0.4-0.8-1-0.4-1.6z"
      fill="#9a3412"
      opacity="0.85"
    />
    <path
      d="M24 22c0-1 0.8-1.8 1.8-1.8h12.4c1 0 1.8 0.8 1.8 1.8v2.2c0 1-0.8 1.8-1.8 1.8H25.8c-1 0-1.8-0.8-1.8-1.8z"
      fill="url(#bottle-highlight)"
      opacity="0.75"
    />
    <path
      d="M25.6 43.5c0.4 1.9 1.8 3.4 3.6 3.9 1.1 0.3 2.4 0.4 3.6 0.3 2.2-0.2 4.1-1.6 4.9-3.7 0.3-0.7 1.2-1 1.8-0.5l0.8 0.6c0.7 0.5 0.9 1.4 0.5 2.1-1.4 2.7-4 4.6-7 4.9-1.6 0.2-3.2 0.1-4.8-0.2-3-0.6-5.6-2.7-6.6-5.6-0.3-0.8 0.1-1.6 0.9-1.9l1-0.3c0.7-0.2 1.3 0.3 1.5 1z"
      fill="#431407"
      opacity="0.45"
    />
  </g>
  <g opacity="0.9">
    <circle cx="24.5" cy="29.5" r="1.6" fill="#fef3c7" opacity="0.75" />
    <circle cx="39.5" cy="27.5" r="1" fill="#fef3c7" opacity="0.5" />
    <circle cx="28.8" cy="18.5" r="1.2" fill="#fef9c3" opacity="0.6" />
  </g>
</svg>
