<svg xmlns="http://www.w3.org/2000/svg" viewBox="0 0 64 64" width="64" height="64" role="img" aria-labelledby="title desc">
  <title id="title">Auric Warder v1</title>
  <desc id="desc">First-pass production render of the Saunoja frontline warder with aurora-lit shield and radiant blade.</desc>
  <defs>
    <radialGradient id="soldier-glow" cx="52%" cy="32%" r="78%">
      <stop offset="0" stop-color="#eef8ff" stop-opacity="0.95" />
      <stop offset="0.45" stop-color="#b9dcff" stop-opacity="0.58" />
      <stop offset="1" stop-color="#12243d" stop-opacity="0" />
    </radialGradient>
    <linearGradient id="soldier-night" x1="0%" x2="0%" y1="0%" y2="100%">
      <stop offset="0" stop-color="#061021" />
      <stop offset="1" stop-color="#10213b" />
    </linearGradient>
    <linearGradient id="soldier-armor" x1="22%" x2="78%" y1="6%" y2="94%">
      <stop offset="0" stop-color="#f9fbff" />
      <stop offset="0.36" stop-color="#d7e3fb" />
      <stop offset="0.72" stop-color="#9ab2d8" />
      <stop offset="1" stop-color="#506187" />
    </linearGradient>
    <linearGradient id="soldier-gold" x1="18%" x2="82%" y1="0%" y2="100%">
      <stop offset="0" stop-color="#fde9a5" />
      <stop offset="0.44" stop-color="#f7c657" />
      <stop offset="1" stop-color="#f59e0b" />
    </linearGradient>
    <linearGradient id="soldier-cloak" x1="14%" x2="92%" y1="18%" y2="90%">
      <stop offset="0" stop-color="#2e5de3" />
      <stop offset="1" stop-color="#1bb4f2" />
    </linearGradient>
    <radialGradient id="soldier-shield" cx="42%" cy="46%" r="70%">
      <stop offset="0" stop-color="#fdf7d1" />
      <stop offset="0.44" stop-color="#9dd1ff" />
      <stop offset="1" stop-color="#1c57d9" />
    </radialGradient>
    <linearGradient id="soldier-sword" x1="0%" x2="0%" y1="0%" y2="100%">
      <stop offset="0" stop-color="#f4fbff" />
      <stop offset="0.62" stop-color="#9cc7fb" />
      <stop offset="1" stop-color="#1a2750" />
    </linearGradient>
    <radialGradient id="soldier-shadow" cx="50%" cy="86%" r="46%">
      <stop offset="0" stop-color="rgba(10,16,32,0.55)" />
      <stop offset="1" stop-color="rgba(10,16,32,0)" />
    </radialGradient>
  </defs>
  <g transform="translate(4.173913043, 0) scale(0.347826087)">
      <rect width="160" height="184" rx="26" fill="url(#soldier-night)" />
      <circle cx="82" cy="70" r="72" fill="url(#soldier-glow)" />
      <ellipse cx="80" cy="150" rx="58" ry="18" fill="url(#soldier-shadow)" />
      <path d="M34 58c-10 26-8 54 6 82l24 12c-2-30 8-58 30-78-22-6-40-10-60-16Z" fill="url(#soldier-cloak)" opacity="0.82" />
      <path d="M136 62c12 24 12 54-2 80l-24 12c4-30-6-58-28-78 20-4 38-8 54-14Z" fill="url(#soldier-cloak)" opacity="0.62" />
      <path d="M68 28 46 58c-10 14-16 32-16 52v28l26 56h48l28-58V98c0-20-6-38-18-52L92 28H68Z" fill="url(#soldier-armor)" stroke="#12243d" stroke-width="3.2" stroke-linejoin="round" />
      <path d="M58 104h44l8 20c-14 16-28 24-30 24s-18-8-32-24l10-20Z" fill="#e8f4ff" opacity="0.9" />
      <path d="M80 40c-12 0-24 8-34 18l12 14c14-10 44-10 58 0l12-14c-10-12-22-18-36-18Z" fill="#f8fbff" stroke="#cad8f2" stroke-width="2.6" />
      <path d="M66 24h28l10 12-24 14-24-14 10-12Z" fill="#e7edfb" stroke="#9aaed6" stroke-width="2.2" />
      <path d="M62 126l12 36-24 14-20-44 20-10 12 4Z" fill="url(#soldier-gold)" opacity="0.94" />
      <path d="M104 124l24-10-14 46-22-14 12-22Z" fill="#fff3d6" opacity="0.7" />
      <path d="M38 112 20 126l34 36 20-18-36-32Z" fill="url(#soldier-shield)" stroke="#16337f" stroke-width="2.6" />
      <circle cx="50" cy="130" r="12" fill="rgba(255,255,255,0.45)" />
      <path d="M128 102 112 90l-32 74 14 12 34-74Z" fill="url(#soldier-sword)" stroke="#091733" stroke-width="2.6" stroke-linejoin="round" />
      <path d="M92 96 72 144l18 10 26-56-24-2Z" fill="#f4f7ff" opacity="0.72" />
      <path d="M80 146c-12 0-24 10-30 22 10 8 20 12 32 12s20-4 32-12c-6-12-18-22-34-22Z" fill="#d8e8ff" stroke="#95c5ff" stroke-width="1.9" stroke-linejoin="round" />
      <path d="M70 90h20l4 12-14 8-14-8 4-12Z" fill="#152744" />
      <circle cx="80" cy="92" r="10" fill="#f5f8ff" stroke="#c7d6f0" stroke-width="1.8" />
      <path d="M64 70c-8 0-14 8-14 18 10-6 20-8 30-8s20 2 30 8c0-10-6-18-14-18H64Z" fill="#0c1730" opacity="0.82" />
      <g fill="rgba(224,241,255,0.42)">
        <circle cx="30" cy="46" r="4" />
        <circle cx="46" cy="36" r="3" />
        <circle cx="134" cy="44" r="5" />
        <circle cx="122" cy="30" r="3" />
      </g>
  </g>
</svg>
