<svg xmlns="http://www.w3.org/2000/svg" viewBox="0 0 200 200" role="img" aria-labelledby="title desc">
  <title id="title">Saunoja Attendant</title>
  <desc id="desc">Inclusive non-binary sauna attendant icon in the refreshed Autobattles4xFinsauna style.</desc>
  <defs>
    <radialGradient id="steam-glow" cx="50%" cy="42%" r="70%">
      <stop offset="0" stop-color="#FEF9F5" stop-opacity="0.85" />
      <stop offset="0.45" stop-color="#F9EEE5" stop-opacity="0.58" />
      <stop offset="0.82" stop-color="#E4D8FF" stop-opacity="0.42" />
      <stop offset="1" stop-color="#D6F0FF" stop-opacity="0.15" />
    </radialGradient>
    <radialGradient id="steam-ring" cx="52%" cy="38%" r="78%">
      <stop offset="0" stop-color="#C1F4FF" stop-opacity="0.0" />
      <stop offset="0.54" stop-color="#BCE4FF" stop-opacity="0.22" />
      <stop offset="1" stop-color="#AFC7FF" stop-opacity="0.18" />
    </radialGradient>
    <linearGradient id="skin" x1="34%" x2="72%" y1="18%" y2="92%">
      <stop offset="0" stop-color="#FCE8D8" />
      <stop offset="0.35" stop-color="#F5D3C1" />
      <stop offset="0.75" stop-color="#E4A891" />
      <stop offset="1" stop-color="#C47C6D" />
    </linearGradient>
    <linearGradient id="freckles" x1="50%" x2="50%" y1="0%" y2="100%">
      <stop offset="0" stop-color="#C36D5C" stop-opacity="0.18" />
      <stop offset="0.6" stop-color="#B26D60" stop-opacity="0.08" />
      <stop offset="1" stop-color="#A36555" stop-opacity="0.0" />
    </linearGradient>
    <linearGradient id="robe" x1="30%" x2="72%" y1="14%" y2="92%">
      <stop offset="0" stop-color="#FDF8FE" />
      <stop offset="0.42" stop-color="#EFE6FF" />
      <stop offset="0.78" stop-color="#D9CCFF" />
      <stop offset="1" stop-color="#C4B3FF" />
    </linearGradient>
    <linearGradient id="robe-shadow" x1="12%" x2="84%" y1="12%" y2="92%">
      <stop offset="0" stop-color="#7F6CDD" stop-opacity="0.38" />
      <stop offset="0.52" stop-color="#5B48AD" stop-opacity="0.44" />
      <stop offset="1" stop-color="#241C54" stop-opacity="0.55" />
    </linearGradient>
    <linearGradient id="hair" x1="24%" x2="86%" y1="28%" y2="84%">
      <stop offset="0" stop-color="#3A184A" />
      <stop offset="0.5" stop-color="#4E2F7A" />
      <stop offset="1" stop-color="#742FAF" />
    </linearGradient>
    <linearGradient id="hair-shine" x1="36%" x2="72%" y1="22%" y2="88%">
      <stop offset="0" stop-color="#FBD7FF" stop-opacity="0.6" />
      <stop offset="0.5" stop-color="#FFD6F2" stop-opacity="0.25" />
      <stop offset="1" stop-color="#FFE0FF" stop-opacity="0" />
    </linearGradient>
    <linearGradient id="eyeshadow" x1="50%" x2="50%" y1="0%" y2="100%">
      <stop offset="0" stop-color="#7E57C2" stop-opacity="0.55" />
      <stop offset="1" stop-color="#512B88" stop-opacity="0" />
    </linearGradient>
    <linearGradient id="brow" x1="0%" x2="100%" y1="0%" y2="0%">
      <stop offset="0" stop-color="#2F1A42" />
      <stop offset="1" stop-color="#492859" />
    </linearGradient>
    <radialGradient id="lip" cx="50%" cy="55%" r="65%">
      <stop offset="0" stop-color="#D56C7E" />
      <stop offset="1" stop-color="#9F3D4E" />
    </radialGradient>
    <linearGradient id="cheek" x1="0%" x2="100%" y1="0%" y2="0%">
      <stop offset="0" stop-color="#F7B5B5" stop-opacity="0.0" />
      <stop offset="0.28" stop-color="#F48C9B" stop-opacity="0.28" />
      <stop offset="0.72" stop-color="#F48C9B" stop-opacity="0.28" />
      <stop offset="1" stop-color="#F7B5B5" stop-opacity="0.0" />
    </linearGradient>
    <linearGradient id="collar" x1="36%" y1="16%" x2="64%" y2="100%">
      <stop offset="0" stop-color="#BFA8FF" />
      <stop offset="0.55" stop-color="#8E7ADD" />
      <stop offset="1" stop-color="#5A4BA8" />
    </linearGradient>
    <linearGradient id="accent-band" x1="20%" x2="80%" y1="0%" y2="100%">
      <stop offset="0" stop-color="#FDBB51" />
      <stop offset="0.45" stop-color="#F89F52" />
      <stop offset="1" stop-color="#E26C68" />
    </linearGradient>
    <linearGradient id="steam-strand" x1="50%" x2="50%" y1="0%" y2="100%">
      <stop offset="0" stop-color="#FFFFFF" stop-opacity="0.72" />
      <stop offset="0.62" stop-color="#F6FFFF" stop-opacity="0.28" />
      <stop offset="1" stop-color="#E0F1FF" stop-opacity="0" />
    </linearGradient>
  </defs>
  <g fill="none" stroke-linecap="round" stroke-linejoin="round">
    <circle cx="100" cy="104" r="92" fill="url(#steam-glow)" />
    <circle cx="98" cy="100" r="82" fill="url(#steam-ring)" />
    <path
      fill="none"
      stroke="#B5C9FF"
      stroke-opacity="0.45"
      stroke-width="8"
      d="M46 54c12-22 38-34 64-29 24 5 44 24 48 48 5 32-19 62-52 66"
    />
    <path
      fill="none"
      stroke="#F9E9FF"
      stroke-width="6"
      stroke-opacity="0.32"
      d="M40 142c-8-32 10-66 40-78 21-8 45-3 62 13 16 16 22 40 16 62"
    />
  </g>
  <g>
    <path
      d="M74 139c-3.4-13.6-3-24.7 1.2-33.5 5.4-11.3 17.1-19.4 29.9-20.3 13.6-0.9 26.8 6.8 33.5 19.1 6.2 11.5 6.3 26.2 0.1 43.8-1.4 4-3.1 7.7-5.3 11.3-2.1 3.4-5.5 5.9-9.4 7.1-9.6 3.1-19.9 4.6-30.1 4.3-7.8-0.2-15.5-1.5-23-3.9-4-1.3-7.2-4.3-9-8.1-2.8-5.9-4.8-12-6.1-18.6Z"
      fill="url(#robe)"
    />
    <path
      d="M82.3 106.5c5.2-10.9 16.1-18.5 28.2-19.3 12.8-0.9 25 6.2 31.4 17.5 6 10.8 6.1 24.6 0.1 41-1.2 3.6-2.9 7.1-4.8 10.4-1.7 2.8-4.4 4.9-7.5 5.9-9.1 2.9-18.8 4.2-28.4 3.9-7.2-0.3-14.4-1.4-21.3-3.6-3.3-1.1-6-3.5-7.6-6.7-2.7-5.4-4.6-11-5.7-16.9-2.5-13.1-0.6-23.7 6-31.8 1.5-1.9 3.1-3.7 4.9-5.4 1.2-1.2 2.4-2.6 3.7-3.9Z"
      fill="url(#robe-shadow)"
      opacity="0.55"
    />
    <path
      d="M75 137c10.8-8.7 20-14.4 27.5-17.1 8.7-3.2 17.4-1 26.1 6.5 2.6 2.2 3.3 6 1.7 9.1-3.4 6.7-10.3 11.4-18 12.4-8.2 1.1-16.5 1.1-24.7-0.1-8-1.1-14.5-6.9-17-14.6l4.4-2.2Z"
      fill="url(#collar)"
      opacity="0.92"
    />
    <path
      d="M69.8 134.6c-6 1.9-12.1 3.8-18.4 2.6-6.9-1.3-12.9-5.3-16.5-11.3-5.7-9.3-5.7-21.3 0.1-31.6 4.9-8.6 13.5-14.5 23.2-16 9.1-1.3 18.4 1.8 25 8.3 2.2 2.2 3.5 5.2 3.3 8.3-0.4 7.7-1.6 15.2-3.6 22.6-1.7 6.2-5.8 11.5-11.6 15.1-0.5 0.3-1 0.6-1.5 0.7Z"
      fill="url(#accent-band)"
    />
  </g>
  <g>
    <path
      d="M73.8 94.2c-6.3-8.2-8.2-19.2-5.2-29.1 3.1-10.4 11.2-19.2 21.5-23.3 12.3-5 27.1-2.7 37.3 5.9 11.9 9.9 16.7 26.4 12 41.3-3.9 12.4-13.4 22.4-25.6 27.1-6.7 2.6-14.1 3.1-21.1 1.4-11.4-2.7-18.3-9-25.8-23.3Z"
      fill="url(#skin)"
    />
    <path
      d="M136.8 89.4c-4.4 14-16 24.7-29.6 28.2-6.2 1.7-12.8 1.7-19 0-10.1-2.7-17.6-9.3-24.6-22.3-5.8-10.7-5-24 2-34.1 5.8-8.5 15.6-13.5 25.8-13.3 6.6 0 13.1 1.9 18.7 5.6 11.8 7.6 17.5 22.1 16.7 35.9Z"
      fill="url(#freckles)"
    />
    <path
      d="M81.7 63.5c6.2-3.1 13.7-3.3 20.1-0.6 6 2.5 10.6 7.4 12.6 13.5 1.5 4.6 0.7 9.8-2.1 13.8-2.9 4.1-7.5 6.8-12.4 7.2-5.5 0.5-10.9-2.2-14.2-6.8-3.6-5-5.6-11-5.4-17.1 0.1-4 0.6-7.2 1.4-9.6Z"
      fill="#FBE0D6"
      opacity="0.4"
    />
  </g>
  <g>
    <path
      d="M79.5 67.2c2.3-8.3 7.9-15.5 15.3-19.8 5.2-3 11.1-4.6 17.1-4.5 9.1 0.1 18 3.7 24.6 10.1 7.8 7.6 11.6 18.6 10.2 29.4-0.4 3.6-1.5 7-3.2 10.2-1.6 3-4 5.6-6.9 7.5-1.8 1.2-3.8 2.1-5.9 2.7-5.8 1.7-11.9 1.4-17.6-0.7-7.6-2.7-14.4-7.4-19.7-13.4-4.4-5.2-7.6-11.4-9.3-18-0.9-3.6-0.9-7.4 0.4-11.1Z"
      fill="url(#hair)"
    />
    <path
      d="M79.9 67.8c2.2-8 7.6-15 14.7-19.2 5-3 10.6-4.5 16.4-4.4 8.7 0.1 17.1 3.5 23.4 9.6 7.5 7.3 11.1 17.9 9.8 28.4-0.4 3.4-1.4 6.7-3.1 9.7-1.5 2.8-3.9 5.2-6.6 7-1.7 1.1-3.6 1.9-5.6 2.5-5.5 1.6-11.4 1.3-16.8-0.7-7.2-2.6-13.7-7-18.8-12.7-4.2-5-7.3-10.8-8.9-17.1-0.7-3.3-0.8-6.8 0.5-10.1Z"
      fill="url(#hair-shine)"
    />
    <path
      d="M76.2 69.8c-3.1-0.8-6.3-0.8-9.4 0-6.3 1.5-11.6 6-14 12.1-3.1 7.7-1.1 16.6 4.9 22.4 3.7 3.6 8.7 5.6 13.8 5.4 2.3-0.1 4.3-1.7 5-3.9 2.9-9 3.4-18.6 1.6-27.8-0.6-2.9-1-5.4-1.9-7.1Z"
      fill="#2B1E40"
    />
    <path
      d="M76.8 71.2c-2.6-0.7-5.3-0.7-8 0-5.4 1.3-9.9 5.1-12 10.2-2.7 6.5-1 14.1 4.1 19.1 3.2 3.1 7.4 4.8 11.8 4.6 1.9-0.1 3.6-1.4 4.1-3.3 2.5-7.9 3-16.4 1.4-24.5-0.4-2.4-0.8-4.6-1.4-6.1Z"
      fill="#3C2D57"
    />
  </g>
  <g stroke-linecap="round" stroke-linejoin="round">
    <path
      d="M104.5 99.2c3.4 2.1 7.8 2.1 11.2 0"
      stroke="#471F53"
      stroke-width="5.2"
    />
    <path
      d="M89 84c3.2-3.1 8.4-3.1 11.6 0"
      stroke="url(#eyeshadow)"
      stroke-width="6"
    />
    <path
      d="M120 84c3.2-3.1 8.4-3.1 11.6 0"
      stroke="url(#eyeshadow)"
      stroke-width="6"
    />
    <path d="M93 83.5c2.4-2.2 6.4-2.2 8.8 0" stroke="#2A183A" stroke-width="3" />
    <path d="M124 83.5c2.4-2.2 6.4-2.2 8.8 0" stroke="#2A183A" stroke-width="3" />
    <circle cx="97" cy="92.5" r="4.2" fill="#2F1F42" />
    <circle cx="97" cy="92.5" r="1.6" fill="#F5F9FF" />
    <circle cx="128.4" cy="92.5" r="4.2" fill="#2F1F42" />
    <circle cx="128.4" cy="92.5" r="1.6" fill="#F5F9FF" />
    <path d="M91 78c3-4.8 8.9-7.6 14.6-6.9" stroke="url(#brow)" stroke-width="4" />
    <path d="M123 71c5.7-0.6 11.6 2.2 14.6 6.9" stroke="url(#brow)" stroke-width="4" />
    <path
      d="M110.5 114c-6.8 1.5-11.3 5.2-13.2 11"
      stroke="#C97380"
      stroke-opacity="0.55"
      stroke-width="4.2"
    />
  </g>
  <g>
    <path
      d="M104.1 108.4c4.9 3.6 11.5 3.6 16.4 0 2.8-2.1 5-4.9 6.5-8.2 0.3-0.6 0.4-1.3 0.4-2 0-0.8-0.3-1.6-0.8-2.3-1.8-2.3-4.6-3.6-7.5-3.3-4.7 0.5-9.4 0.4-14.1-0.2-2.9-0.4-5.7 0.8-7.6 3-0.5 0.7-0.8 1.5-0.8 2.3 0 0.7 0.1 1.4 0.4 2 1.5 3.3 3.7 6.1 6.5 8.2Z"
      fill="url(#lip)"
    />
    <path
      d="M104.1 108.4c4.9 3.6 11.5 3.6 16.4 0 2.8-2.1 5-4.9 6.5-8.2 0.3-0.6 0.4-1.3 0.4-2 0-0.8-0.3-1.6-0.8-2.3-1.8-2.3-4.6-3.6-7.5-3.3-4.7 0.5-9.4 0.4-14.1-0.2-2.9-0.4-5.7 0.8-7.6 3-0.5 0.7-0.8 1.5-0.8 2.3 0 0.7 0.1 1.4 0.4 2 1.5 3.3 3.7 6.1 6.5 8.2Z"
      fill="#321427"
      opacity="0.25"
    />
    <path
      d="M107.6 103.5c3.8 2.3 8.6 2.3 12.4 0"
      stroke="#F4A1A6"
      stroke-linecap="round"
      stroke-width="2.6"
    />
    <path
      d="M104.8 112c3.5 1.5 7.5 1.5 11 0"
      stroke="#A63854"
      stroke-linecap="round"
      stroke-width="2.4"
    />
  </g>
  <g opacity="0.6">
    <ellipse cx="93" cy="105" rx="14" ry="8.5" fill="url(#cheek)" />
    <ellipse cx="132" cy="105" rx="14" ry="8.5" fill="url(#cheek)" />
  </g>
  <g opacity="0.85">
    <path
      d="M133.4 127.6c10.5 5.3 18.2 8.8 22.9 10.6 5.7 2.2 9.2 8 8.2 14.1-1.2 7.9-7.7 14.1-15.6 14.8-3.7 0.3-7.4-0.4-10.8-2-14-6.5-26.1-15.8-36-27.4l5.4-6.2c6.8-7.7 16.7-9.3 25.9-3.9Z"
      fill="url(#accent-band)"
      opacity="0.82"
    />
    <path
      d="M55.6 125.9c-11 4.7-18.9 8-23.6 9.5-6.2 1.9-10.3 7.9-9.6 14.3 0.9 7.9 7 14.3 14.8 15.5 3.8 0.6 7.7 0 11.3-1.4 14.9-5.9 27.7-14.8 38.1-26.2l-5.7-6c-7.2-7.3-17.2-8.4-25.3-5.7Z"
      fill="url(#accent-band)"
      opacity="0.82"
    />
  </g>
  <g opacity="0.75">
    <path
      d="M38 70c-6-18 3.5-34.5 19-38 12.5-2.8 25.5 3 32.5 13.8"
      fill="none"
      stroke="url(#steam-strand)"
      stroke-width="6"
      stroke-linecap="round"
    />
    <path
      d="M160 75c8-16-1.5-34.5-16.5-39.7-12-4-26-0.3-34.8 8.5"
      fill="none"
      stroke="url(#steam-strand)"
      stroke-width="6"
      stroke-linecap="round"
    />
    <path
      d="M50 156c14 12 31 19 48.8 19.2 17.2 0.2 34-6.2 47.2-18.6"
      fill="none"
      stroke="url(#steam-strand)"
      stroke-width="7"
      stroke-linecap="round"
    />
  </g>
</svg>
